<?xml version="1.0" encoding="utf-8"?>
<!-- Generator: Adobe Illustrator 27.5.0, SVG Export Plug-In . SVG Version: 6.00 Build 0)  -->
<svg version="1.1" xmlns="http://www.w3.org/2000/svg" xmlns:xlink="http://www.w3.org/1999/xlink" x="0px" y="0px"
	 viewBox="0 0 500 500" style="enable-background:new 0 0 500 500;" xml:space="preserve">
<g id="Background_Simple">
	<g>
		<path style="opacity:0.7;fill:#FFFFFF;" d="M67.931,167.086c0,0-27.877,71.988,11.297,144.503
			c39.174,72.516,119.879,110.802,184.469,143.548c64.59,32.746,131.661,16.799,163.534-36.838
			c31.873-53.637-11.845-91.928-11.897-168.418c-0.051-76.49,11.447-96.742-29.963-161.364
			c-41.41-64.623-143.059-78.925-219.9-30.996C88.631,105.45,67.931,167.086,67.931,167.086z"/>
	</g>
	<g>
		<path style="fill:#92E3A9;" d="M248.591,54.195C54.198,65.07,12.473,322.91,77.569,401.76
			c50.529,61.205,140.616,51.101,188.169-8.803c39.157-49.327,102.541-12.886,154.792-66.225
			C488.594,257.248,466.716,41.991,248.591,54.195z"/>
		<path style="opacity:0.7;fill:#FFFFFF;" d="M248.591,54.195C54.198,65.07,12.473,322.91,77.569,401.76
			c50.529,61.205,140.616,51.101,188.169-8.803c39.157-49.327,102.541-12.886,154.792-66.225
			C488.594,257.248,466.716,41.991,248.591,54.195z"/>
	</g>
</g>
<g id="Interface">
	<g>
		<g>
			<g>
				<defs>
					<path id="XMLID_150_" d="M411.32,98.21v246.34c0,1.37-1.11,2.47-2.47,2.47H260.99c-1.36,0-2.47-1.1-2.47-2.47V98.21
						c0-1.36,1.11-2.47,2.47-2.47h40.75l1.34,4.54h63.68l1.34-4.54h40.75C410.21,95.74,411.32,96.85,411.32,98.21z"/>
				</defs>
				<use xlink:href="#XMLID_150_"  style="overflow:visible;fill:#92E3A9;"/>
				<clipPath id="XMLID_00000165228608920134868270000010369501712940038790_">
					<use xlink:href="#XMLID_150_"  style="overflow:visible;"/>
				</clipPath>
				<path style="opacity:0.5;clip-path:url(#XMLID_00000165228608920134868270000010369501712940038790_);fill:#FFFFFF;" d="
					M411.32,119.56v224.99c0,1.37-1.11,2.47-2.47,2.47H260.99c-1.36,0-2.47-1.1-2.47-2.47V119.56H411.32z"/>
				<g style="opacity:0.2;clip-path:url(#XMLID_00000165228608920134868270000010369501712940038790_);">
					<path d="M385.395,142.431H258.297v55.282h127.098c1.639,0,2.968-1.329,2.968-2.968v-49.346
						C388.362,143.76,387.034,142.431,385.395,142.431z"/>
					<path d="M372.244,201.378H258.297v58.085h113.948c1.722,0,3.118-1.396,3.118-3.118v-51.849
						C375.362,202.774,373.966,201.378,372.244,201.378z"/>
					<path d="M385.395,258.325H258.297v55.282h127.098c1.639,0,2.968-1.329,2.968-2.968v-49.346
						C388.362,259.654,387.034,258.325,385.395,258.325z"/>
					<path d="M388.36,319.24v27.78H260.99c-1.36,0-2.47-1.1-2.47-2.47v-28.28h126.87C387.03,316.27,388.36,317.6,388.36,319.24z"/>
					<path d="M400.29,145.79v14.2c0,1.24-0.68,2.32-1.68,2.9v184.13h-3.36V162.89c-1-0.58-1.68-1.66-1.68-2.9v-14.2
						c0-1.85,1.5-3.36,3.36-3.36C398.79,142.43,400.29,143.94,400.29,145.79z"/>
				</g>
				
					<use xlink:href="#XMLID_150_"  style="overflow:visible;fill:none;stroke:#263238;stroke-linecap:round;stroke-linejoin:round;stroke-miterlimit:10;"/>
			</g>
			
				<line style="fill:none;stroke:#263238;stroke-linecap:round;stroke-linejoin:round;stroke-miterlimit:10;" x1="258.524" y1="119.771" x2="411.317" y2="119.771"/>
		</g>
		<g>
			<g>
				<g>
					<defs>
						<path id="XMLID_618_" d="M372.36,138.4v46.66c0,1.64-1.33,2.97-2.97,2.97H244c-1.64,0-2.97-1.33-2.97-2.97V138.4
							c0-1.64,1.33-2.97,2.97-2.97h125.39C371.03,135.43,372.36,136.76,372.36,138.4z"/>
					</defs>
					<use xlink:href="#XMLID_618_"  style="overflow:visible;fill:#FFFFFF;"/>
					<clipPath id="XMLID_00000131326909250776985080000007467184659567049402_">
						<use xlink:href="#XMLID_618_"  style="overflow:visible;"/>
					</clipPath>
					
						<rect x="247.409" y="141.558" style="clip-path:url(#XMLID_00000131326909250776985080000007467184659567049402_);fill:#FFFFFF;stroke:#263238;stroke-linecap:round;stroke-linejoin:round;stroke-miterlimit:10;" width="42.706" height="40.343"/>
					<path style="clip-path:url(#XMLID_00000131326909250776985080000007467184659567049402_);fill:#263238;" d="M337.61,145.107
						h-38.218c-0.98,0-1.775-0.794-1.775-1.774l0,0c0-0.98,0.794-1.775,1.775-1.775h38.218c0.98,0,1.774,0.794,1.774,1.775l0,0
						C339.384,144.313,338.59,145.107,337.61,145.107z"/>
					<path style="clip-path:url(#XMLID_00000131326909250776985080000007467184659567049402_);fill:#263238;" d="M315.12,152.936
						h-15.728c-0.98,0-1.775-0.794-1.775-1.774l0,0c0-0.98,0.794-1.774,1.775-1.774h15.728c0.98,0,1.774,0.794,1.774,1.774l0,0
						C316.894,152.142,316.1,152.936,315.12,152.936z"/>
					
						<path style="clip-path:url(#XMLID_00000131326909250776985080000007467184659567049402_);fill:#92E3A9;stroke:#263238;stroke-linecap:round;stroke-linejoin:round;stroke-miterlimit:10;" d="
						M347.976,172.632c-1.906-0.6-3.073,0.567-3.601,1.318c-0.517-0.759-1.67-1.944-3.584-1.372
						c-2.077,0.624-2.817,3.259-1.091,5.684c1.244,1.743,3.258,2.944,4.289,3.478c0.123,0.064,0.236,0.118,0.327,0.161
						c0.092-0.042,0.206-0.094,0.33-0.156c1.038-0.518,3.07-1.69,4.337-3.414C350.747,175.932,350.043,173.286,347.976,172.632z"/>
					<g style="clip-path:url(#XMLID_00000131326909250776985080000007467184659567049402_);">
						<polygon style="fill:#FFFFFF;stroke:#263238;stroke-linecap:round;stroke-linejoin:round;stroke-miterlimit:10;" points="
							362.82,178.707 356.462,178.707 355.818,172.438 363.465,172.438 						"/>
						<g>
							
								<line style="fill:#FFFFFF;stroke:#263238;stroke-linecap:round;stroke-linejoin:round;stroke-miterlimit:10;" x1="356.044" y1="174.577" x2="363.238" y2="174.577"/>
							
								<line style="fill:#FFFFFF;stroke:#263238;stroke-linecap:round;stroke-linejoin:round;stroke-miterlimit:10;" x1="356.275" y1="176.568" x2="363.008" y2="176.568"/>
						</g>
						<g>
							
								<line style="fill:#FFFFFF;stroke:#263238;stroke-linecap:round;stroke-linejoin:round;stroke-miterlimit:10;" x1="358.223" y1="172.438" x2="358.383" y2="178.707"/>
							
								<line style="fill:#FFFFFF;stroke:#263238;stroke-linecap:round;stroke-linejoin:round;stroke-miterlimit:10;" x1="361.059" y1="172.438" x2="360.868" y2="178.707"/>
						</g>
						
							<line style="fill:#FFFFFF;stroke:#263238;stroke-linecap:round;stroke-linejoin:round;stroke-miterlimit:10;" x1="363.428" y1="172.416" x2="365.205" y2="171.771"/>
						<path style="fill:#FFFFFF;stroke:#263238;stroke-linecap:round;stroke-linejoin:round;stroke-miterlimit:10;" d="
							M364.503,181.745c0,0.449-0.364,0.812-0.812,0.812c-0.449,0-0.812-0.364-0.812-0.812c0-0.449,0.364-0.812,0.812-0.812
							C364.139,180.932,364.503,181.296,364.503,181.745z"/>
						<path style="fill:#FFFFFF;stroke:#263238;stroke-linecap:round;stroke-linejoin:round;stroke-miterlimit:10;" d="
							M356.223,181.745c0,0.449-0.364,0.812-0.812,0.812c-0.449,0-0.812-0.364-0.812-0.812c0-0.449,0.364-0.812,0.812-0.812
							C355.859,180.932,356.223,181.296,356.223,181.745z"/>
						
							<line style="fill:#FFFFFF;stroke:#263238;stroke-linecap:round;stroke-linejoin:round;stroke-miterlimit:10;" x1="355.621" y1="179.818" x2="363.691" y2="179.818"/>
					</g>
					
						<path style="clip-path:url(#XMLID_00000131326909250776985080000007467184659567049402_);fill:#92E3A9;stroke:#263238;stroke-linecap:round;stroke-linejoin:round;stroke-miterlimit:10;" d="
						M257.217,158.849l2.635,14.93h17.44l3.388-14.93c0,0-3.011-3.035-2.886-10.163l-2.133-0.753c0,0,0.63,6.148-6.899,6.148
						c-7.529,0-7.78-5.52-7.78-5.52l-2.133,0.827C258.848,149.387,260.228,155.461,257.217,158.849z"/>
					
						<path style="clip-path:url(#XMLID_00000131326909250776985080000007467184659567049402_);fill:#92E3A9;stroke:#263238;stroke-linecap:round;stroke-linejoin:round;stroke-miterlimit:10;" d="
						M273.956,159.758c-0.046-0.125-1.918-0.084-3.995,0l-1.013-2.258c0,0-0.336,1.021-0.778,2.338
						c-2.024,0.097-3.801,0.203-3.801,0.203l3.07,1.951c-0.528,1.537-1.048,3-1.282,3.507c0,0,1.531-1.057,3.237-2.265l2.973,1.889
						l-1.363-3.039C272.616,160.92,274,159.878,273.956,159.758z"/>
					<path style="opacity:0.2;clip-path:url(#XMLID_00000131326909250776985080000007467184659567049402_);" d="M365.805,178.71
						H241.03v6.35c0,1.64,1.33,2.97,2.97,2.97h124.67v-6.455C368.67,179.993,367.388,178.71,365.805,178.71z"/>
					
						<use xlink:href="#XMLID_618_"  style="overflow:visible;fill:none;stroke:#263238;stroke-linecap:round;stroke-linejoin:round;stroke-miterlimit:10;"/>
				</g>
			</g>
			<g>
				<defs>
					<path id="XMLID_619_" d="M372.36,248.66v46.67c0,1.64-1.33,2.96-2.97,2.96H244c-1.64,0-2.97-1.32-2.97-2.96v-46.67
						c0-1.63,1.33-2.96,2.97-2.96h125.39C371.03,245.7,372.36,247.03,372.36,248.66z"/>
				</defs>
				<use xlink:href="#XMLID_619_"  style="overflow:visible;fill:#FFFFFF;"/>
				<clipPath id="XMLID_00000031170239476641052810000011133826595374939071_">
					<use xlink:href="#XMLID_619_"  style="overflow:visible;"/>
				</clipPath>
				
					<rect x="247.409" y="251.824" style="clip-path:url(#XMLID_00000031170239476641052810000011133826595374939071_);fill:#FFFFFF;stroke:#263238;stroke-linecap:round;stroke-linejoin:round;stroke-miterlimit:10;" width="42.706" height="40.343"/>
				<path style="clip-path:url(#XMLID_00000031170239476641052810000011133826595374939071_);fill:#263238;" d="M337.61,255.373
					h-38.218c-0.98,0-1.775-0.794-1.775-1.774l0,0c0-0.98,0.794-1.775,1.775-1.775h38.218c0.98,0,1.774,0.795,1.774,1.775l0,0
					C339.384,254.579,338.59,255.373,337.61,255.373z"/>
				<path style="clip-path:url(#XMLID_00000031170239476641052810000011133826595374939071_);fill:#263238;" d="M315.12,263.203
					h-15.728c-0.98,0-1.775-0.794-1.775-1.774v0c0-0.98,0.794-1.774,1.775-1.774h15.728c0.98,0,1.774,0.794,1.774,1.774v0
					C316.894,262.408,316.1,263.203,315.12,263.203z"/>
				
					<path style="clip-path:url(#XMLID_00000031170239476641052810000011133826595374939071_);fill:#92E3A9;stroke:#263238;stroke-linecap:round;stroke-linejoin:round;stroke-miterlimit:10;" d="
					M347.976,282.898c-1.906-0.6-3.073,0.567-3.601,1.318c-0.517-0.759-1.67-1.944-3.584-1.372
					c-2.077,0.624-2.817,3.259-1.091,5.684c1.244,1.743,3.258,2.944,4.289,3.478c0.123,0.064,0.236,0.118,0.327,0.161
					c0.092-0.042,0.206-0.094,0.33-0.156c1.038-0.518,3.07-1.69,4.337-3.414C350.747,286.199,350.043,283.552,347.976,282.898z"/>
				<g style="clip-path:url(#XMLID_00000031170239476641052810000011133826595374939071_);">
					<polygon style="fill:#FFFFFF;stroke:#263238;stroke-linecap:round;stroke-linejoin:round;stroke-miterlimit:10;" points="
						362.82,288.973 356.462,288.973 355.818,282.704 363.465,282.704 					"/>
					<g>
						
							<line style="fill:none;stroke:#263238;stroke-linecap:round;stroke-linejoin:round;stroke-miterlimit:10;" x1="356.044" y1="284.843" x2="363.238" y2="284.843"/>
						
							<line style="fill:none;stroke:#263238;stroke-linecap:round;stroke-linejoin:round;stroke-miterlimit:10;" x1="356.275" y1="286.835" x2="363.008" y2="286.835"/>
					</g>
					<g>
						
							<line style="fill:none;stroke:#263238;stroke-linecap:round;stroke-linejoin:round;stroke-miterlimit:10;" x1="358.223" y1="282.704" x2="358.383" y2="288.973"/>
						
							<line style="fill:none;stroke:#263238;stroke-linecap:round;stroke-linejoin:round;stroke-miterlimit:10;" x1="361.059" y1="282.704" x2="360.868" y2="288.973"/>
					</g>
					
						<line style="fill:none;stroke:#263238;stroke-linecap:round;stroke-linejoin:round;stroke-miterlimit:10;" x1="363.428" y1="282.682" x2="365.205" y2="282.038"/>
					<path style="fill:#FFFFFF;stroke:#263238;stroke-linecap:round;stroke-linejoin:round;stroke-miterlimit:10;" d="
						M364.503,292.011c0,0.449-0.364,0.812-0.812,0.812c-0.449,0-0.812-0.364-0.812-0.812c0-0.449,0.364-0.812,0.812-0.812
						C364.139,291.199,364.503,291.563,364.503,292.011z"/>
					<path style="fill:#FFFFFF;stroke:#263238;stroke-linecap:round;stroke-linejoin:round;stroke-miterlimit:10;" d="
						M356.223,292.011c0,0.449-0.364,0.812-0.812,0.812c-0.449,0-0.812-0.364-0.812-0.812c0-0.449,0.364-0.812,0.812-0.812
						C355.859,291.199,356.223,291.563,356.223,292.011z"/>
					
						<line style="fill:none;stroke:#263238;stroke-linecap:round;stroke-linejoin:round;stroke-miterlimit:10;" x1="355.621" y1="290.084" x2="363.691" y2="290.084"/>
				</g>
				<g style="clip-path:url(#XMLID_00000031170239476641052810000011133826595374939071_);">
					<path style="fill:#FFFFFF;stroke:#263238;stroke-linecap:round;stroke-linejoin:round;stroke-miterlimit:10;" d="
						M258.346,284.157v1.682h10.039c0,0,3.041-3.597,4.735-3.157c1.694,0.44,1.506,3.157,1.506,3.157h2.541l0.847-1.682
						l-0.659-9.222L258.346,284.157z"/>
					<path style="fill:#92E3A9;stroke:#263238;stroke-linecap:round;stroke-linejoin:round;stroke-miterlimit:10;" d="
						M258.346,284.157h9.463c0,0,2.958-2.729,5.216-3.482c2.258-0.753,2.823,3.482,2.823,3.482h2.164c0,0,1.788-4.705,1.788-5.27
						c0-0.564-1.694-8.657-1.694-13.926c0,0-5.74-0.094-6.493,0.847c0,0-1.223-1.788-1.976-1.6c0,0,0.753,3.67,0.47,6.493
						c-0.282,2.823-4.14,7.34-7.81,8.657C259.889,280.223,258.911,281.146,258.346,284.157z"/>
					<path style="fill:none;stroke:#263238;stroke-linecap:round;stroke-linejoin:round;stroke-miterlimit:10;" d="M271.614,265.807
						c0,0,0.188,5.552,0,6.681c-0.188,1.129-5.175,6.681-5.646,6.869"/>
					
						<line style="fill:none;stroke:#263238;stroke-linecap:round;stroke-linejoin:round;stroke-miterlimit:10;" x1="270.123" y1="267.953" x2="272.555" y2="267.953"/>
					
						<line style="fill:none;stroke:#263238;stroke-linecap:round;stroke-linejoin:round;stroke-miterlimit:10;" x1="270.109" y1="270.701" x2="272.555" y2="270.324"/>
					
						<line style="fill:none;stroke:#263238;stroke-linecap:round;stroke-linejoin:round;stroke-miterlimit:10;" x1="269.423" y1="272.582" x2="272.555" y2="272.959"/>
					
						<line style="fill:none;stroke:#263238;stroke-linecap:round;stroke-linejoin:round;stroke-miterlimit:10;" x1="268.385" y1="274.175" x2="271.339" y2="274.935"/>
					
						<line style="fill:none;stroke:#263238;stroke-linecap:round;stroke-linejoin:round;stroke-miterlimit:10;" x1="267.057" y1="275.828" x2="269.423" y2="277.193"/>
					<path style="fill:#FFFFFF;stroke:#263238;stroke-linecap:round;stroke-linejoin:round;stroke-miterlimit:10;" d="
						M262.299,279.358c0,0,2.917,1.411,2.917,4.799h-6.869C258.346,284.157,258.817,280.487,262.299,279.358z"/>
					<path style="fill:#FFFFFF;stroke:#263238;stroke-linecap:round;stroke-linejoin:round;stroke-miterlimit:10;" d="
						M276.626,277.016c0,0.656-0.532,1.188-1.188,1.188c-0.656,0-1.188-0.532-1.188-1.188c0-0.656,0.532-1.188,1.188-1.188
						C276.094,275.828,276.626,276.36,276.626,277.016z"/>
				</g>
				<path style="opacity:0.2;clip-path:url(#XMLID_00000031170239476641052810000011133826595374939071_);" d="M368.67,245.7H244
					c-1.64,0-2.97,1.33-2.97,2.96v17.74h124.775c1.582,0,2.865-1.283,2.865-2.865V245.7z"/>
				
					<use xlink:href="#XMLID_619_"  style="overflow:visible;fill:none;stroke:#263238;stroke-linecap:round;stroke-linejoin:round;stroke-miterlimit:10;"/>
			</g>
			<g>
				<g>
					<path style="fill:#FFFFFF;stroke:#263238;stroke-linecap:round;stroke-linejoin:round;stroke-miterlimit:10;" d="
						M369.395,353.428H243.999c-1.639,0-2.968-1.329-2.968-2.968v-46.662c0-1.639,1.329-2.968,2.968-2.968h125.396
						c1.639,0,2.968,1.329,2.968,2.968v46.662C372.362,352.099,371.034,353.428,369.395,353.428z"/>
					
						<rect x="247.409" y="306.957" style="fill:#FFFFFF;stroke:#263238;stroke-linecap:round;stroke-linejoin:round;stroke-miterlimit:10;" width="42.706" height="40.343"/>
					<path style="fill:#263238;" d="M337.61,310.506h-38.218c-0.98,0-1.775-0.794-1.775-1.775l0,0c0-0.98,0.794-1.775,1.775-1.775
						h38.218c0.98,0,1.774,0.794,1.774,1.775l0,0C339.384,309.712,338.59,310.506,337.61,310.506z"/>
					<path style="fill:#263238;" d="M315.12,318.336h-15.728c-0.98,0-1.775-0.794-1.775-1.774l0,0c0-0.98,0.794-1.775,1.775-1.775
						h15.728c0.98,0,1.774,0.794,1.774,1.775l0,0C316.894,317.541,316.1,318.336,315.12,318.336z"/>
					<path style="fill:#92E3A9;stroke:#263238;stroke-linecap:round;stroke-linejoin:round;stroke-miterlimit:10;" d="
						M347.976,338.031c-1.906-0.6-3.073,0.567-3.601,1.319c-0.517-0.76-1.67-1.944-3.584-1.372
						c-2.077,0.624-2.817,3.259-1.091,5.684c1.244,1.743,3.258,2.944,4.289,3.478c0.123,0.065,0.236,0.118,0.327,0.161
						c0.092-0.042,0.206-0.094,0.33-0.156c1.038-0.518,3.07-1.69,4.337-3.414C350.747,341.332,350.043,338.686,347.976,338.031z"/>
					<g>
						<polygon style="fill:#FFFFFF;stroke:#263238;stroke-linecap:round;stroke-linejoin:round;stroke-miterlimit:10;" points="
							362.82,344.106 356.462,344.106 355.818,337.837 363.465,337.837 						"/>
						<g>
							
								<line style="fill:#FFFFFF;stroke:#263238;stroke-linecap:round;stroke-linejoin:round;stroke-miterlimit:10;" x1="356.044" y1="339.976" x2="363.238" y2="339.976"/>
							
								<line style="fill:#FFFFFF;stroke:#263238;stroke-linecap:round;stroke-linejoin:round;stroke-miterlimit:10;" x1="356.275" y1="341.968" x2="363.008" y2="341.968"/>
						</g>
						<g>
							
								<line style="fill:#FFFFFF;stroke:#263238;stroke-linecap:round;stroke-linejoin:round;stroke-miterlimit:10;" x1="358.223" y1="337.837" x2="358.383" y2="344.106"/>
							
								<line style="fill:#FFFFFF;stroke:#263238;stroke-linecap:round;stroke-linejoin:round;stroke-miterlimit:10;" x1="361.059" y1="337.837" x2="360.868" y2="344.106"/>
						</g>
						
							<line style="fill:#FFFFFF;stroke:#263238;stroke-linecap:round;stroke-linejoin:round;stroke-miterlimit:10;" x1="363.428" y1="337.815" x2="365.205" y2="337.171"/>
						<path style="fill:#FFFFFF;stroke:#263238;stroke-linecap:round;stroke-linejoin:round;stroke-miterlimit:10;" d="
							M364.503,347.144c0,0.449-0.364,0.812-0.812,0.812c-0.449,0-0.812-0.364-0.812-0.812c0-0.449,0.364-0.812,0.812-0.812
							C364.139,346.332,364.503,346.696,364.503,347.144z"/>
						<path style="fill:#FFFFFF;stroke:#263238;stroke-linecap:round;stroke-linejoin:round;stroke-miterlimit:10;" d="
							M356.223,347.144c0,0.449-0.364,0.812-0.812,0.812c-0.449,0-0.812-0.364-0.812-0.812c0-0.449,0.364-0.812,0.812-0.812
							C355.859,346.332,356.223,346.696,356.223,347.144z"/>
						
							<line style="fill:#FFFFFF;stroke:#263238;stroke-linecap:round;stroke-linejoin:round;stroke-miterlimit:10;" x1="355.621" y1="345.217" x2="363.691" y2="345.217"/>
					</g>
				</g>
				<g>
					<path style="fill:none;stroke:#263238;stroke-linecap:round;stroke-linejoin:round;stroke-miterlimit:10;" d="M272.555,319.82
						c0,0,1.522-8.003,5.182-5.033c6.204,5.033,1.185,19.845,1.185,19.845"/>
					<path style="fill:none;stroke:#263238;stroke-linecap:round;stroke-linejoin:round;stroke-miterlimit:10;" d="M264.369,319.82
						c0,0-1.424-5.456-4.852-5.174c-3.428,0.281-6.44,11.448-2.299,21.485"/>
					<path style="fill:none;stroke:#263238;stroke-linecap:round;stroke-linejoin:round;stroke-miterlimit:10;" d="M265.216,317.236
						c0,0,0.622-2.449,3.024-2.449s2.749,2.449,2.749,2.449"/>
					<path style="fill:#92E3A9;stroke:#263238;stroke-linecap:round;stroke-linejoin:round;stroke-miterlimit:10;" d="
						M260.856,317.311l14.582-0.251v3.338c0,0,6.437,14.766,4.68,17.991c-1.757,3.226-22.775,4.122-23.653-0.574
						c-0.878-4.696,4.768-16.74,4.768-16.74L260.856,317.311z"/>
					<path style="fill:none;stroke:#263238;stroke-linecap:round;stroke-linejoin:round;stroke-miterlimit:10;" d="M261.232,321.075
						c0,0-0.376,6.022,1.757,7.151c2.133,1.129,10.225,1.255,11.26-0.502c1.035-1.757,1.188-7.327,1.188-7.327"/>
					<path style="fill:none;stroke:#263238;stroke-linecap:round;stroke-linejoin:round;stroke-miterlimit:10;" d="M261.207,330.735
						c0,0,4.636,1.255,6.973,0.878c0,0-0.549,6.901-1.678,6.901c-1.129,0-6.524,0.215-6.901-1.022s0.627-5.628,0.627-5.628"/>
					<path style="fill:none;stroke:#263238;stroke-linecap:round;stroke-linejoin:round;stroke-miterlimit:10;" d="M276.626,330.735
						c0,0-3.884,1.069-6.503,1.004c0,0-0.041,5.045,0.867,6.098c0.908,1.053,5.801,0.499,6.554-0.667
						c0.753-1.166-0.917-5.055-0.917-5.055"/>
					<path style="fill:none;stroke:#263238;stroke-linecap:round;stroke-linejoin:round;stroke-miterlimit:10;" d="M269.722,326.507
						c0,0.621-0.503,1.124-1.124,1.124c-0.621,0-1.124-0.503-1.124-1.124c0-0.621,0.503-1.124,1.124-1.124
						C269.219,325.383,269.722,325.886,269.722,326.507z"/>
				</g>
			</g>
			<g>
				<g>
					<path style="fill:#FFFFFF;stroke:#263238;stroke-linecap:round;stroke-linejoin:round;stroke-miterlimit:10;" d="
						M361.395,248.065H200.088c-1.639,0-2.968-1.329-2.968-2.968v-61.044c0-1.639,1.329-2.968,2.968-2.968h161.307
						c1.639,0,2.968,1.329,2.968,2.968v61.044C364.362,246.736,363.034,248.065,361.395,248.065z"/>
					
						<rect x="205.241" y="188.888" style="fill:#FFFFFF;stroke:#263238;stroke-linecap:round;stroke-linejoin:round;stroke-miterlimit:10;" width="54.383" height="51.375"/>
					<path style="fill:#263238;" d="M320.501,193.407h-49.457c-1.03,0-1.865-0.835-1.865-1.865v-0.789
						c0-1.03,0.835-1.865,1.865-1.865h49.457c1.03,0,1.865,0.835,1.865,1.865v0.789
						C322.366,192.572,321.531,193.407,320.501,193.407z"/>
					<path style="fill:#263238;" d="M291.862,203.378h-20.818c-1.03,0-1.865-0.835-1.865-1.865v-0.789
						c0-1.03,0.835-1.865,1.865-1.865h20.818c1.03,0,1.865,0.835,1.865,1.865v0.789
						C293.727,202.543,292.892,203.378,291.862,203.378z"/>
					<path style="fill:#92E3A9;stroke:#263238;stroke-linecap:round;stroke-linejoin:round;stroke-miterlimit:10;" d="
						M333.307,228.458c-2.427-0.764-3.913,0.722-4.585,1.679c-0.658-0.967-2.126-2.475-4.564-1.747
						c-2.645,0.794-3.587,4.15-1.389,7.238c1.584,2.219,4.149,3.749,5.462,4.429c0.157,0.082,0.3,0.151,0.417,0.206
						c0.117-0.053,0.262-0.12,0.42-0.199c1.322-0.66,3.91-2.152,5.522-4.347C336.837,232.662,335.94,229.292,333.307,228.458z"/>
					<g>
						<polygon style="fill:#FFFFFF;stroke:#263238;stroke-linecap:round;stroke-linejoin:round;stroke-miterlimit:10;" points="
							352.211,236.195 344.114,236.195 343.294,228.212 353.032,228.212 						"/>
						<g>
							
								<line style="fill:#FFFFFF;stroke:#263238;stroke-linecap:round;stroke-linejoin:round;stroke-miterlimit:10;" x1="343.582" y1="230.936" x2="352.743" y2="230.936"/>
							
								<line style="fill:#FFFFFF;stroke:#263238;stroke-linecap:round;stroke-linejoin:round;stroke-miterlimit:10;" x1="343.876" y1="233.471" x2="352.45" y2="233.471"/>
						</g>
						<g>
							
								<line style="fill:#FFFFFF;stroke:#263238;stroke-linecap:round;stroke-linejoin:round;stroke-miterlimit:10;" x1="346.357" y1="228.212" x2="346.56" y2="236.195"/>
							
								<line style="fill:#FFFFFF;stroke:#263238;stroke-linecap:round;stroke-linejoin:round;stroke-miterlimit:10;" x1="349.968" y1="228.212" x2="349.725" y2="236.195"/>
						</g>
						
							<line style="fill:#FFFFFF;stroke:#263238;stroke-linecap:round;stroke-linejoin:round;stroke-miterlimit:10;" x1="352.984" y1="228.183" x2="355.248" y2="227.363"/>
						
							<circle style="fill:#FFFFFF;stroke:#263238;stroke-linecap:round;stroke-linejoin:round;stroke-miterlimit:10;" cx="353.32" cy="240.064" r="1.035"/>
						
							<circle style="fill:#FFFFFF;stroke:#263238;stroke-linecap:round;stroke-linejoin:round;stroke-miterlimit:10;" cx="342.775" cy="240.064" r="1.035"/>
						
							<line style="fill:#FFFFFF;stroke:#263238;stroke-linecap:round;stroke-linejoin:round;stroke-miterlimit:10;" x1="343.043" y1="237.61" x2="353.32" y2="237.61"/>
					</g>
				</g>
				<g>
					<path style="fill:#92E3A9;stroke:#263238;stroke-linecap:round;stroke-linejoin:round;stroke-miterlimit:10;" d="
						M223.87,196.552h16.856l0.399,3.518l12.782,24.442c0,0-1.118,6.208-4.154,4.063c-3.036-2.146-4.633,5.456-8.788,3.573
						c-4.154-1.884-6.256,2.502-10.957,1.268c-4.701-1.234-6.139-0.877-8.535,0.223c-2.397,1.099-4.474-4.575-6.391-4.214
						c-1.917,0.361-3.821-2.995-3.821-2.995l11.81-24.924L223.87,196.552z"/>
					
						<line style="fill:#92E3A9;stroke:#263238;stroke-linecap:round;stroke-linejoin:round;stroke-miterlimit:10;" x1="225.148" y1="200.07" x2="239.048" y2="200.07"/>
					<path style="fill:#263238;" d="M232.667,198.233c0,0.314-0.255,0.569-0.569,0.569c-0.314,0-0.569-0.255-0.569-0.569
						c0-0.314,0.255-0.569,0.569-0.569C232.413,197.663,232.667,197.918,232.667,198.233z"/>
					<path style="fill:none;stroke:#263238;stroke-linecap:round;stroke-linejoin:round;stroke-miterlimit:10;" d="M217.299,226.169
						c0,0,4.194-10.785,4.853-13.241"/>
					<path style="fill:#FFFFFF;stroke:#263238;stroke-linecap:round;stroke-linejoin:round;stroke-miterlimit:10;" d="
						M230.498,223.398c0.065-4.205,0.102-8.732,0.102-8.732l-0.166,8.718C230.455,223.389,230.477,223.393,230.498,223.398z"/>
					<path style="fill:#FFFFFF;stroke:#263238;stroke-linecap:round;stroke-linejoin:round;stroke-miterlimit:10;" d="
						M230.383,226.067l-0.082,4.296c0.057-0.398,0.108-2.121,0.151-4.286C230.429,226.074,230.406,226.07,230.383,226.067z"/>
					<path style="fill:#FFFFFF;stroke:#263238;stroke-linecap:round;stroke-linejoin:round;stroke-miterlimit:10;" d="
						M242.164,228.326c0-0.24-3.894-13.78-4.014-15.398"/>
					<path style="fill:#FFFFFF;stroke:#263238;stroke-linecap:round;stroke-linejoin:round;stroke-miterlimit:10;" d="
						M244.895,212.925c-0.471-1.137-0.942-2.274-1.413-3.412"/>
					<path style="fill:#FFFFFF;stroke:#263238;stroke-linecap:round;stroke-linejoin:round;stroke-miterlimit:10;" d="
						M249.833,224.851c-1.246-3.009-2.492-6.018-3.738-9.027"/>
					
						<line style="fill:#FFFFFF;stroke:#263238;stroke-linecap:round;stroke-linejoin:round;stroke-miterlimit:10;" x1="223.051" y1="210.592" x2="223.83" y2="208.794"/>
				</g>
			</g>
		</g>
		<path style="fill:#263238;" d="M380.929,354.366L380.929,354.366c-0.929,0-1.681-0.753-1.681-1.681V141.391
			c0-0.929,0.753-1.681,1.681-1.681l0,0c0.928,0,1.681,0.753,1.681,1.681v211.293C382.61,353.613,381.857,354.366,380.929,354.366z"
			/>
		<path style="fill:#FFFFFF;stroke:#263238;stroke-linecap:round;stroke-linejoin:round;stroke-miterlimit:10;" d="M380.929,156.354
			L380.929,156.354c-1.857,0-3.363-1.506-3.363-3.363v-14.198c0-1.857,1.505-3.363,3.363-3.363l0,0c1.857,0,3.363,1.506,3.363,3.363
			v14.198C384.291,154.848,382.786,156.354,380.929,156.354z"/>
		<text transform="matrix(1 0 0 1 317.0428 114.3727)" style="opacity:0.6; font-family:'BebasNeue'; font-size:12px;">WISHLIST</text>
	</g>
</g>
<g id="Bubble">
	<g>
		<path style="fill:#FFFFFF;stroke:#263238;stroke-linecap:round;stroke-linejoin:round;stroke-miterlimit:10;" d="M80.203,126.607
			c-0.636-18.249,16.528-33.658,38.338-34.418c21.81-0.76,40.005,13.417,40.641,31.665c0.586,16.812-13.941,31.204-33.284,33.962
			c-1.525,9.98,3.187,14.622,3.187,14.622c-11.197-4.642-14.361-14.348-14.361-14.348C95.729,156.293,80.779,143.117,80.203,126.607
			z"/>
		<path style="fill:#92E3A9;" d="M109.68,113.19c5.441-1.556,8.656,1.836,10.095,4.004c1.521-2.111,4.874-5.378,10.251-3.614
			c5.834,1.922,7.73,9.44,2.66,16.174c-3.653,4.841-9.447,8.09-12.405,9.524c-0.353,0.173-0.676,0.317-0.938,0.432
			c-0.258-0.125-0.575-0.281-0.921-0.468c-2.901-1.546-8.565-5.015-12.021-9.992C101.583,122.326,103.776,114.887,109.68,113.19z"/>
	</g>
</g>
<g id="Character">
	<g>
		<path style="fill:#FFFFFF;stroke:#263238;stroke-linecap:round;stroke-linejoin:round;stroke-miterlimit:10;" d="M106.914,288.708
			c0,0-25.685,25.013-33.691,42.025c-8.006,17.012-3.482,16.278,4.334,21.666c15.69,10.817,49.371,24.735,49.371,24.735
			s0.667,10.973,6.338,14.643c5.671,3.669,21.682-17.256,19.347-20.803c-2.335-3.547-18.327-2.422-18.327-2.422
			s-8.025-3.21-19.367-12.509c-11.341-9.298-25.351-17.971-25.351-17.971s13.974-19.457,21.389-24.763
			c7.415-5.307,19.306-12.93,19.306-12.93"/>
		<g>
			<path style="fill:#BFBFBF;" d="M216.12,433.08c-15.22,5.1-29.8,8.82-42.47,9.8c-0.94,0.07-1.87,0.13-2.79,0.17
				c-0.17-3.04-0.44-8.74-0.74-10.49c-0.5-2.89-2.45-4.52-2.45-4.52l-5.34,2.84l-1.48,12.17c-23.29-0.35-38.06-6.97-38.06-6.97
				l2.1-12.7c-1.1-3.71-1.5-7.67-1.4-11.75c0.64-23.72,18.7-50.97,18.7-50.97s41.5-29.28,55.24-5.54
				C211.16,378.86,216.12,433.08,216.12,433.08z"/>
			<path style="opacity:0.2;" d="M195.69,431.21c-0.26,2.36-15.77,5.54-21.99,0.05c0.59,0.56,5.85,5.59,4.46,7.33
				c-1.46,1.85-4.51,0-4.51,0s0.67,1.86,0,4.29c-0.94,0.07-1.87,0.13-2.79,0.17c-0.17-3.04-0.44-8.74-0.74-10.49
				c-0.5-2.89-2.45-4.52-2.45-4.52l-5.34,2.84l-1.48,12.17c-23.29-0.35-38.06-6.97-38.06-6.97l2.1-12.7
				c-1.1-3.71-1.5-7.67-1.4-11.75c2.54,4.39,6.97,10.1,13.13,11.05c10.2,1.56,18.22-5.71,18.22-5.71s-2.36-6.58,0-13.05
				c0,0-1.13,16.48,18.81,18.76c19.43,2.22,23.58-2.06,23.77-2.26c-0.31,0.45-5.26,7.64-8.19,8.42
				C189.23,428.84,195.96,428.84,195.69,431.21z"/>
			<path style="fill:none;stroke:#263238;stroke-linecap:round;stroke-linejoin:round;stroke-miterlimit:10;" d="M216.12,433.077
				c0,0-4.956-54.22-18.692-77.956c-13.736-23.736-55.236,5.538-55.236,5.538s-24.8,37.407-17.304,62.725l-2.097,12.692"/>
			<path style="fill:none;stroke:#263238;stroke-linecap:round;stroke-linejoin:round;stroke-miterlimit:10;" d="M127.648,423.033
				c10.022,3.428,21.626,2.11,29.275-2.637"/>
			<path style="fill:none;stroke:#263238;stroke-linecap:round;stroke-linejoin:round;stroke-miterlimit:10;" d="M158.176,379.253
				c0,0-7.516,28.879,0,37.583c7.516,8.703,29.472,9.321,35.406,8.122c5.934-1.199,7.912-5.353,7.912-5.353"/>
			<g>
				<path style="fill:none;stroke:#263238;stroke-linecap:round;stroke-linejoin:round;stroke-miterlimit:10;" d="M169.456,383.473
					c0,0-2.078,14.769,0.211,21.89l10.796,3.956l8.763-5.802c0,0-0.967-13.714-0.811-20.044
					C188.415,383.473,177.505,381.626,169.456,383.473z"/>
				<path style="fill:none;stroke:#263238;stroke-linecap:round;stroke-linejoin:round;stroke-miterlimit:10;" d="M168.591,399.033
					c0,0,6.491-2.451,10.317,3.165c0,0,0.646-5.802,9.506-4.747"/>
				<path style="fill:none;stroke:#263238;stroke-linecap:round;stroke-linejoin:round;stroke-miterlimit:10;" d="M170.835,385.978
					c0,0,13.203-0.859,17.58,0.856"/>
			</g>
			<g>
				<path style="fill:none;stroke:#263238;stroke-linecap:round;stroke-linejoin:round;stroke-miterlimit:10;" d="M133.099,386.032
					c0,0-5.151,13.193-4.998,20.041l8.745,3.867l9.374-6.248c0,0,1.538-13.184,2.708-18.789
					C148.928,384.902,140.038,384.01,133.099,386.032z"/>
				<path style="fill:none;stroke:#263238;stroke-linecap:round;stroke-linejoin:round;stroke-miterlimit:10;" d="M128.778,399.93
					c0,0,6.136-2.554,8.255,2.737c0,0,1.816-5.645,9.542-4.992"/>
				<path style="fill:none;stroke:#263238;stroke-linecap:round;stroke-linejoin:round;stroke-miterlimit:10;" d="M133.676,388.073
					c0,0,11.213-1.485,14.711-0.235"/>
			</g>
			<path style="fill:none;stroke:#263238;stroke-linecap:round;stroke-linejoin:round;stroke-miterlimit:10;" d="M134.835,377.134
				c0,0,12.064-2.16,22.548,5.518c0,0,18.792-11.509,43.122-7.751"/>
			<path style="fill:none;stroke:#263238;stroke-linecap:round;stroke-linejoin:round;stroke-miterlimit:10;" d="M203.592,374.147
				c0,0,8.204,27.543,9.383,59.544"/>
			<path style="fill:none;stroke:#263238;stroke-linecap:round;stroke-linejoin:round;stroke-miterlimit:10;" d="M143.538,429.89
				c0,0,13.451-4.945,17.604-8.505c0,0,9.754,8.901,23.371,8.505"/>
			<path style="fill:none;stroke:#263238;stroke-linecap:round;stroke-linejoin:round;stroke-miterlimit:10;" d="M170.859,443.05
				c0,0,0.184-10.391-1.404-11.775c-1.588-1.385-1.997-5.631-1.997-5.631"/>
			<path style="fill:none;stroke:#263238;stroke-linecap:round;stroke-linejoin:round;stroke-miterlimit:10;" d="M167.67,427.05
				c-1.78,1.851-2.769,2.444-5.341,3.829l-1.48,12.171"/>
		</g>
		<path style="fill:#FFFFFF;stroke:#263238;stroke-linecap:round;stroke-linejoin:round;stroke-miterlimit:10;" d="M197.378,274.751
			c2.825,7.17,29.956,42.751,32.179,52.98c2.224,10.229,2.001,19.125-10.452,16.011c-12.453-3.113-17.705-41.113-31.501-61.377"/>
		<g>
			<path style="fill:#FFFFFF;stroke:#263238;stroke-linecap:round;stroke-linejoin:round;stroke-miterlimit:10;" d="M196.11,278.977
				c1.131-1.462,1.653-3.201,1.088-5.129c0,0-0.961-5.886-3.646-10.286c-2.685-4.4-0.738-8.598-2.538-8.511
				c-1.8,0.087-2.171,4.036-2.171,4.036s-3.509-3.92-5.665-5.086c-0.984-0.532-7.181-3.068-7.181-3.068l-6.33,0.307
				c0,0-0.057,2.99,5.761,2.648l3.877,3.079c0,0-3.658,1.087-3.848,2.724c-0.19,1.637-2.183,1.779-1.979,3.979
				c0.204,2.2-0.817,2.525,1.012,5.363c2.198,3.41,4.435,2.29,4.435,2.29s1.859,9.617,3.88,11.497
				c1.028,0.956,3.165,1.102,5.495,0.609"/>
			<path style="fill:none;stroke:#263238;stroke-linecap:round;stroke-linejoin:round;stroke-miterlimit:10;" d="M175.457,259.691
				c0,0,2.242,5.123,3.571,6.467c1.329,1.344,3.704-0.073,4.615-0.187c1.17-0.146,1.986,0.013,1.799-0.484
				c-0.995-2.656-3.832-1.956-3.832-1.956s-0.842-2.824-2.516-3.978"/>
			<path style="fill:none;stroke:#263238;stroke-linecap:round;stroke-linejoin:round;stroke-miterlimit:10;" d="M188.843,259.088
				c0,0-0.141,1.574,0.383,3.913c0,0-1.919,4.459-1.582,6.563"/>
			<path style="fill:none;stroke:#263238;stroke-linecap:round;stroke-linejoin:round;stroke-miterlimit:10;" d="M173.485,264.045
				c0.836,1.892,2.743,4.456,4.33,4.853c1.587,0.397,7.11-1.15,6.675-2.997"/>
			<path style="fill:none;stroke:#263238;stroke-linecap:round;stroke-linejoin:round;stroke-miterlimit:10;" d="M180.184,260.65
				c0,0,1.148-0.023,1.15-1.851"/>
			<path style="fill:none;stroke:#263238;stroke-linecap:round;stroke-linejoin:round;stroke-miterlimit:10;" d="M179.305,256.967
				c0,0,2.276,0.802,3.303-0.985"/>
		</g>
		<g>
			<path style="fill:#FFFFFF;stroke:#263238;stroke-linecap:round;stroke-linejoin:round;stroke-miterlimit:10;" d="M122.37,205.236
				c5.361-18.4,38.25-17.978,45.81-3.225c7.561,14.752,4.448,11.456,4.892,16.662c0.445,5.206,4.448,9.022,3.558,18.011
				c-0.89,8.989-0.445,12.398-2.669,14.696c-2.224,2.298-18.551-0.275-21.951-2.324C152.011,249.056,113.03,237.296,122.37,205.236z
				"/>
			<path style="fill:#FFFFFF;stroke:#263238;stroke-linecap:round;stroke-linejoin:round;stroke-miterlimit:10;" d="
				M133.701,239.179c2.456,5.159,3.259,26.73-1.812,31.845c0,0,13.386,5.782,32.511-1.112c0,0-5.782-7.337-5.782-13.676
				c0-6.338,7.339-7.228,7.339-7.228"/>
			<path style="fill:#92E3A9;stroke:#263238;stroke-linecap:round;stroke-linejoin:round;stroke-miterlimit:10;" d="
				M172.794,214.063c0.781,0.49-1.154,4.251-3.669,5.778h1.835c0,0-1.001,3.482-1.835,3.816c-0.834,0.334-3.169-8.465-8.84-3.816
				C160.286,219.841,162.287,207.471,172.794,214.063z"/>
			<path style="fill:#92E3A9;stroke:#263238;stroke-linecap:round;stroke-linejoin:round;stroke-miterlimit:10;" d="M155.949,187.93
				c0,0,14.677,2.37,18.346,11.71s-3.01,18.997-8.339,20.201c-8.339,1.885-7.672,11.176-4.67,19.338
				c3.002,8.162,7.894,13.999,6.56,22.338c0,0-5.179-6.139-8.848-2.265c-3.669,3.874-7.803,4.248-15.724,2.452
				c-7.922-1.796-7.715,1.001-11.385,3.316c-3.669,2.315-11.465-4.953-12.132,0.667c-0.667,5.62-2.835,6.159-2.835,6.159
				s-10.341-6.405-7.338-15.61c3.002-9.205,6.004-11.486,4.67-19.197c-1.334-7.712-3.336-21.316-0.334-35.028
				C116.921,188.299,141.622,181.653,155.949,187.93z"/>
			<path style="fill:#FFFFFF;stroke:#263238;stroke-linecap:round;stroke-linejoin:round;stroke-miterlimit:10;" d="M167.179,223.88
				c0,0-1.223-6.56-2.557-6.56c-1.334,0-1.89,4.407-1.89,4.407s-1.575,1.727-1.668,5.711c-0.093,3.984,2.557,5.337,2.557,5.337
				s1.223,3.781,3.558,3.002c2.335-0.778-2.224-3.78-2.113-13.12"/>
			<path style="fill:#FFFFFF;stroke:#263238;stroke-linecap:round;stroke-linejoin:round;stroke-miterlimit:10;" d="
				M167.291,240.085c0,0,0.5,6.171,4.336,10.174"/>
			<path style="fill:none;stroke:#263238;stroke-linecap:round;stroke-linejoin:round;stroke-miterlimit:10;" d="M171.177,204.581
				c-1.635,3.36-4.37,5.518-7.247,7.773c-8.227,6.449-20.48,12.713-20.668,24.79c-0.038,2.477,0.524,4.925,1.463,7.208"/>
			<path style="fill:none;stroke:#263238;stroke-linecap:round;stroke-linejoin:round;stroke-miterlimit:10;" d="M157.402,247.601
				c0.263,1.56,0.537,3.118,0.774,4.682"/>
			<path style="fill:none;stroke:#263238;stroke-linecap:round;stroke-linejoin:round;stroke-miterlimit:10;" d="M161.062,222.802
				c-6.332,4.699-5.207,14.508-4.214,21.303"/>
			<path style="fill:none;stroke:#263238;stroke-linecap:round;stroke-linejoin:round;stroke-miterlimit:10;" d="M132.314,214.755
				C134,228,136,242,129.89,254.901"/>
			<path style="fill:none;stroke:#263238;stroke-linecap:round;stroke-linejoin:round;stroke-miterlimit:10;" d="M154.154,188.703
				c-4.059-0.253-8.419,0.392-12.086,2.182c-7.519,3.67-9.155,12.37-9.629,20.011"/>
			<path style="fill:none;stroke:#263238;stroke-linecap:round;stroke-linejoin:round;stroke-miterlimit:10;" d="M118.158,254.772
				c-0.396,1.617-0.594,3.29-0.448,4.953"/>
			<path style="fill:none;stroke:#263238;stroke-linecap:round;stroke-linejoin:round;stroke-miterlimit:10;" d="M118.082,205.636
				c-0.691,7.899,0.034,15.835,1.066,23.67c0.517,3.926,1.115,7.84,1.66,11.762c0.532,3.826-0.552,7.185-1.786,10.786"/>
			<path style="fill:none;stroke:#263238;stroke-linecap:round;stroke-linejoin:round;stroke-miterlimit:10;" d="M120.924,194.637
				c-1.563,2.256-2.064,5.264-2.464,7.92"/>
			<path style="fill:none;stroke:#263238;stroke-linecap:round;stroke-linejoin:round;stroke-miterlimit:10;" d="M158.468,255.419
				c2.078-1.01,4.236-0.688,5.986,0.817"/>
			<path style="fill:none;stroke:#263238;stroke-linecap:round;stroke-linejoin:round;stroke-miterlimit:10;" d="M137.338,256.141
				c3.334-0.517,6.172,1.604,9.195,2.585c3.381,1.098,6.069,0.339,8.97-1.564"/>
			<path style="fill:none;stroke:#263238;stroke-linecap:round;stroke-linejoin:round;stroke-miterlimit:10;" d="M114.461,266.404
				c1.86,0.595,2.299-2.038,2.852-3.237c1.052-2.283,1.802-2.732,4.297-2.16c5.789,1.327,9.455,2.638,13.123-2.869"/>
		</g>
		<path style="fill:#263238;" d="M111.918,278.489c0,0,12.008-9.504,33.691-11.32c21.682-1.816,36.026-0.476,41.363,4.858
			s14.474,23.999,14.566,33.021c0.058,5.676-6.74,21.682-6.74,21.682l10.158,46.495c0,0-29.47-2.243-56.033,0.093
			c-13.494,1.187-17.034,3.815-17.034,3.815s5.714-20.173,6.715-25.115S106.914,295.961,111.918,278.489z"/>
		<path style="fill:#FFFFFF;stroke:#263238;stroke-linecap:round;stroke-linejoin:round;stroke-miterlimit:10;" d="M230.064,340.138
			c-2.064,10.721-5.844,8.497-12.96,5.162c-7.116-3.336-19.146-15.344-32.59-32.69l15.42-19.301c0,0,12.055,17.077,17.17,22.637
			c5.115,5.559,8.006,14.01,8.006,14.01"/>
		<path style="fill:#263238;" d="M165.956,266.733c0,0,12.983-1.342,19.512,4.063c6.53,5.404,13.952,19.06,18.123,25.322
			c0,0-8.673,16.047-18.818,18.715c0,0-4.328-7.116-8.015-9.34c-3.687-2.224-7.092-7.561-7.092-7.561"/>
		<path style="fill:#263238;" d="M121.119,273.294c-10.869,3.401-21.543,20.413-27.881,26.084c0,0,4.451,12.432,17.72,16.992
			c0,0,6.686-5.65,10.161-4.316C124.594,313.388,121.119,273.294,121.119,273.294z"/>
		<path style="fill:none;stroke:#263238;stroke-linecap:round;stroke-linejoin:round;stroke-miterlimit:10;" d="M171.627,196.879
			c0.07,1.503,0.164,3.008,0.126,4.512"/>
		<path style="fill:none;stroke:#263238;stroke-linecap:round;stroke-linejoin:round;stroke-miterlimit:10;" d="M89.569,338.072
			c0,0-3.591,4.983-9.129,4.785"/>
		<path style="fill:none;stroke:#FFFFFF;stroke-linecap:round;stroke-linejoin:round;stroke-miterlimit:10;" d="M184.514,312.609
			c0,0-5.188-9.48-7.755-9.313s-7.374-16.796,2.546-28.546"/>
		<path style="fill:none;stroke:#FFFFFF;stroke-linecap:round;stroke-linejoin:round;stroke-miterlimit:10;" d="M129.89,271.846
			c0,0,6.104,4.961,28.678-2.282"/>
		<path style="fill:none;stroke:#FFFFFF;stroke-linecap:round;stroke-linejoin:round;stroke-miterlimit:10;" d="M129.89,281.934
			c0,0,16.792-0.389,24.945-7.183"/>
		<path style="fill:none;stroke:#FFFFFF;stroke-linecap:round;stroke-linejoin:round;stroke-miterlimit:10;" d="M110.93,285.363
			c0,0-1.696,19.124,10.017,24.2"/>
		<path style="fill:none;stroke:#FFFFFF;stroke-linecap:round;stroke-linejoin:round;stroke-miterlimit:10;" d="M107.951,303.297
			c0,0,2.63,6.729,11.428,6.266"/>
		<path style="fill:none;stroke:#FFFFFF;stroke-linecap:round;stroke-linejoin:round;stroke-miterlimit:10;" d="M167.67,296.176
			c0,0,1.162,7.97,11.955,9.128"/>
		<path style="fill:none;stroke:#FFFFFF;stroke-linecap:round;stroke-linejoin:round;stroke-miterlimit:10;" d="M142.192,348.049
			c0,0,26.496-4.928,30.767-13.368"/>
		<path style="fill:none;stroke:#FFFFFF;stroke-linecap:round;stroke-linejoin:round;stroke-miterlimit:10;" d="M148.387,354.989
			c0,0,9.402,12.659,24.925,9.758"/>
	</g>
</g>
</svg>
