<?xml version="1.0" encoding="utf-8"?>
<!-- Generator: Adobe Illustrator 24.0.1, SVG Export Plug-In . SVG Version: 6.00 Build 0)  -->
<svg version="1.1" id="Layer_1" xmlns="http://www.w3.org/2000/svg" xmlns:xlink="http://www.w3.org/1999/xlink" x="0px" y="0px"
	 viewBox="0 0 500 500" style="enable-background:new 0 0 500 500;" xml:space="preserve">
<style type="text/css">
	.st0{clip-path:url(#SVGID_2_);fill:#FFFFFF;}
	.st1{clip-path:url(#SVGID_2_);fill:#5FA234;}
	.st2{clip-path:url(#SVGID_4_);fill:#FFFFFF;}
	.st3{clip-path:url(#SVGID_4_);fill:#1393B6;}
</style>
<g>
	<defs>
		<path id="SVGID_1_" d="M483.72,256.16c0-124.02-100.53-224.55-224.55-224.55c-124.01,0-224.55,100.53-224.55,224.55
			c0,124.01,100.53,224.55,224.55,224.55C383.19,480.71,483.72,380.17,483.72,256.16z"/>
	</defs>
	<use xlink:href="#SVGID_1_"  style="overflow:visible;fill:#6DAE31;"/>
	<clipPath id="SVGID_2_">
		<use xlink:href="#SVGID_1_"  style="overflow:visible;"/>
	</clipPath>
	<path class="st0" d="M306.26,241.54h-12.83c-10.19,5.29-21.76,8.3-34.02,8.3c-12.26,0-23.82-3.01-34.02-8.3h-12.83
		c-31.46,0-57.05,25.59-57.05,57.05v73.95h207.79v-73.95C363.31,267.13,337.72,241.54,306.26,241.54z"/>
	<path class="st0" d="M319.39,175.71c0-33.07-26.91-59.98-59.98-59.98c-33.07,0-59.97,26.91-59.97,59.98
		c0,33.07,26.9,59.97,59.97,59.97C292.48,235.68,319.39,208.77,319.39,175.71z"/>
	<path class="st1" d="M552.67,464.4c-0.23-0.23-0.46-0.46-0.69-0.69c-0.23-0.23-0.46-0.46-0.69-0.69c-0.23-0.23-0.46-0.46-0.69-0.69
		c-0.23-0.23-0.46-0.46-0.69-0.69c-0.23-0.23-0.46-0.46-0.69-0.69c-0.23-0.23-0.46-0.46-0.69-0.69c-0.23-0.23-0.46-0.46-0.69-0.69
		c-0.23-0.23-0.46-0.46-0.69-0.69c-0.23-0.23-0.46-0.46-0.69-0.69c-0.23-0.23-0.46-0.46-0.69-0.69c-0.23-0.23-0.46-0.46-0.69-0.69
		c-0.23-0.23-0.46-0.46-0.69-0.69c-0.23-0.23-0.46-0.46-0.69-0.69c-0.23-0.23-0.46-0.46-0.69-0.69c-0.23-0.23-0.46-0.46-0.69-0.69
		c-0.23-0.23-0.46-0.46-0.69-0.69c-0.23-0.23-0.46-0.46-0.69-0.69c-0.23-0.23-0.46-0.46-0.69-0.69c-0.23-0.23-0.46-0.46-0.69-0.69
		c-0.23-0.23-0.46-0.46-0.69-0.69c-0.23-0.23-0.46-0.46-0.69-0.69c-0.23-0.23-0.46-0.46-0.69-0.69c-0.23-0.23-0.46-0.46-0.69-0.69
		c-0.23-0.23-0.46-0.46-0.69-0.69c-0.23-0.23-0.46-0.46-0.69-0.69c-0.23-0.23-0.46-0.46-0.69-0.69c-0.23-0.23-0.46-0.46-0.69-0.69
		c-0.23-0.23-0.46-0.46-0.69-0.69c-0.23-0.23-0.46-0.46-0.69-0.69c-0.23-0.23-0.46-0.46-0.69-0.69c-0.23-0.23-0.46-0.46-0.69-0.69
		c-0.23-0.23-0.46-0.46-0.69-0.69c-0.23-0.23-0.46-0.46-0.69-0.69c-0.23-0.23-0.46-0.46-0.69-0.69c-0.23-0.23-0.46-0.46-0.69-0.69
		c-0.23-0.23-0.46-0.46-0.69-0.69c-0.23-0.23-0.46-0.46-0.69-0.69c-0.23-0.23-0.46-0.46-0.69-0.69c-0.23-0.23-0.46-0.46-0.69-0.69
		c-0.23-0.23-0.46-0.46-0.69-0.69c-0.23-0.23-0.46-0.46-0.69-0.69c-0.23-0.23-0.46-0.46-0.69-0.69c-0.23-0.23-0.46-0.46-0.69-0.69
		c-0.23-0.23-0.46-0.46-0.69-0.69c-0.23-0.23-0.46-0.46-0.69-0.69c-0.23-0.23-0.46-0.46-0.69-0.69c-0.23-0.23-0.46-0.46-0.69-0.69
		c-0.23-0.23-0.46-0.46-0.69-0.69c-0.23-0.23-0.46-0.46-0.69-0.69c-0.23-0.23-0.46-0.46-0.69-0.69c-0.23-0.23-0.46-0.46-0.69-0.69
		c-0.23-0.23-0.46-0.46-0.69-0.69c-0.23-0.23-0.46-0.46-0.69-0.69c-0.23-0.23-0.46-0.46-0.69-0.69c-0.23-0.23-0.46-0.46-0.69-0.69
		c-0.23-0.23-0.46-0.46-0.69-0.69c-0.23-0.23-0.46-0.46-0.69-0.69c-0.23-0.23-0.46-0.46-0.69-0.69c-0.23-0.23-0.46-0.46-0.69-0.69
		c-0.23-0.23-0.46-0.46-0.69-0.69c-0.23-0.23-0.46-0.46-0.69-0.69c-0.09-0.09-0.16-0.19-0.25-0.28c9.54-10.62,15.4-24.61,15.4-39.98
		c0-16.71-6.89-31.83-17.95-42.72c-0.23-0.23-0.46-0.46-0.69-0.69c-0.23-0.23-0.46-0.46-0.69-0.69c-0.23-0.23-0.46-0.46-0.69-0.69
		c-0.23-0.23-0.46-0.46-0.69-0.69c-0.23-0.23-0.46-0.46-0.69-0.69c-0.23-0.23-0.46-0.46-0.69-0.69c-0.23-0.23-0.46-0.46-0.69-0.69
		c-0.23-0.23-0.46-0.46-0.69-0.69c-0.23-0.23-0.46-0.46-0.69-0.69c-0.23-0.23-0.46-0.46-0.69-0.69c-0.23-0.23-0.46-0.46-0.69-0.69
		c-0.23-0.23-0.46-0.46-0.69-0.69c-0.23-0.23-0.46-0.46-0.69-0.69c-0.23-0.23-0.46-0.46-0.69-0.69c-0.23-0.23-0.46-0.46-0.69-0.69
		c-0.23-0.23-0.46-0.46-0.69-0.69c-0.23-0.23-0.46-0.46-0.69-0.69c-0.23-0.23-0.46-0.46-0.69-0.69c-0.23-0.23-0.46-0.46-0.69-0.69
		c-0.23-0.23-0.46-0.46-0.69-0.69c-0.23-0.23-0.46-0.46-0.69-0.69c-0.23-0.23-0.46-0.46-0.69-0.69c-0.23-0.23-0.46-0.46-0.69-0.69
		c-0.23-0.23-0.46-0.46-0.69-0.69c-0.23-0.23-0.46-0.46-0.69-0.69c-0.23-0.23-0.46-0.46-0.69-0.69c-0.23-0.23-0.46-0.46-0.69-0.69
		c-0.23-0.23-0.46-0.46-0.69-0.69c-0.23-0.23-0.46-0.46-0.69-0.69c-0.23-0.23-0.46-0.46-0.69-0.69c-0.23-0.23-0.46-0.46-0.69-0.69
		c-0.23-0.23-0.46-0.46-0.69-0.69c-0.23-0.23-0.46-0.46-0.69-0.69c-0.23-0.23-0.46-0.46-0.69-0.69c-0.23-0.23-0.46-0.46-0.69-0.69
		c-0.23-0.23-0.46-0.46-0.69-0.69c-0.23-0.23-0.46-0.46-0.69-0.69c-0.23-0.23-0.46-0.46-0.69-0.69c-0.23-0.23-0.46-0.46-0.69-0.69
		c-0.23-0.23-0.46-0.46-0.69-0.69c-0.23-0.23-0.46-0.46-0.69-0.69c-0.23-0.23-0.46-0.46-0.69-0.69c-0.23-0.23-0.46-0.46-0.69-0.69
		c-0.23-0.23-0.46-0.46-0.69-0.69c-0.23-0.23-0.46-0.46-0.69-0.69c-0.23-0.23-0.46-0.46-0.69-0.69c-0.23-0.23-0.46-0.46-0.69-0.69
		c-0.23-0.23-0.46-0.46-0.69-0.69c-0.23-0.23-0.46-0.46-0.69-0.69c-0.23-0.23-0.46-0.46-0.69-0.69c-0.23-0.23-0.46-0.46-0.69-0.69
		c-0.23-0.23-0.46-0.46-0.69-0.69c-0.23-0.23-0.46-0.46-0.69-0.69c-0.23-0.23-0.46-0.46-0.69-0.69c-0.23-0.23-0.46-0.46-0.69-0.69
		c-0.23-0.23-0.46-0.46-0.69-0.69c-0.23-0.23-0.46-0.46-0.69-0.69c-0.23-0.23-0.46-0.46-0.69-0.69c-0.23-0.23-0.46-0.46-0.69-0.69
		c-0.23-0.23-0.46-0.46-0.69-0.69c-0.23-0.23-0.46-0.46-0.69-0.69c-0.23-0.23-0.46-0.46-0.69-0.69c-0.23-0.23-0.46-0.46-0.69-0.69
		c-0.23-0.23-0.46-0.46-0.69-0.69c-0.23-0.23-0.46-0.46-0.69-0.69c-0.23-0.23-0.46-0.46-0.69-0.69c-0.23-0.23-0.46-0.46-0.69-0.69
		c-0.23-0.23-0.46-0.46-0.69-0.69c-0.23-0.23-0.46-0.46-0.69-0.69c-0.23-0.23-0.46-0.46-0.69-0.69c-0.23-0.23-0.46-0.46-0.69-0.69
		c-0.23-0.23-0.46-0.46-0.69-0.69c-0.23-0.23-0.46-0.46-0.69-0.69c-0.23-0.23-0.46-0.46-0.69-0.69c-0.23-0.23-0.46-0.46-0.69-0.69
		c-0.23-0.23-0.46-0.46-0.69-0.69c-0.23-0.23-0.46-0.46-0.69-0.69c-0.23-0.23-0.46-0.46-0.69-0.69c-0.23-0.23-0.46-0.46-0.69-0.69
		c-0.23-0.23-0.46-0.46-0.69-0.69c-0.23-0.23-0.46-0.46-0.69-0.69c-0.23-0.23-0.46-0.46-0.69-0.69c-0.23-0.23-0.46-0.46-0.69-0.69
		c-0.23-0.23-0.46-0.46-0.69-0.69c-0.23-0.23-0.46-0.46-0.69-0.69c-0.23-0.23-0.46-0.46-0.69-0.69c-0.23-0.23-0.46-0.46-0.69-0.69
		c-0.23-0.23-0.46-0.46-0.69-0.69c-0.23-0.23-0.46-0.46-0.69-0.69c-0.23-0.23-0.46-0.46-0.69-0.69c-0.23-0.23-0.46-0.46-0.69-0.69
		c-0.23-0.23-0.46-0.46-0.69-0.69c-0.23-0.23-0.46-0.46-0.69-0.69c-0.23-0.23-0.46-0.46-0.69-0.69c-0.23-0.23-0.46-0.46-0.69-0.69
		c-0.23-0.23-0.46-0.46-0.69-0.69c-0.23-0.23-0.46-0.46-0.69-0.69c-0.23-0.23-0.46-0.46-0.69-0.69c-0.23-0.23-0.46-0.46-0.69-0.69
		c-0.23-0.23-0.46-0.46-0.69-0.69c-0.23-0.23-0.46-0.46-0.69-0.69c-0.23-0.23-0.46-0.46-0.69-0.69c-0.23-0.23-0.46-0.46-0.69-0.69
		c-0.23-0.23-0.46-0.46-0.69-0.69c-0.23-0.23-0.46-0.46-0.69-0.69c-0.23-0.23-0.46-0.46-0.69-0.69c-0.23-0.23-0.46-0.46-0.69-0.69
		c-0.23-0.23-0.46-0.46-0.69-0.69c-0.23-0.23-0.46-0.46-0.69-0.69c-0.23-0.23-0.46-0.46-0.69-0.69c-0.23-0.23-0.46-0.46-0.69-0.69
		c-0.23-0.23-0.46-0.46-0.69-0.69c-0.23-0.23-0.46-0.46-0.69-0.69c-0.23-0.23-0.46-0.46-0.69-0.69c-0.23-0.23-0.46-0.46-0.69-0.69
		c-0.23-0.23-0.46-0.46-0.69-0.69c-0.23-0.23-0.46-0.46-0.69-0.69c-0.23-0.23-0.46-0.46-0.69-0.69c-0.23-0.23-0.46-0.46-0.69-0.69
		c-0.23-0.23-0.46-0.46-0.69-0.69c-0.23-0.23-0.46-0.46-0.69-0.69c-0.23-0.23-0.46-0.46-0.69-0.69c-0.23-0.23-0.46-0.46-0.69-0.69
		c-0.23-0.23-0.46-0.46-0.69-0.69c-0.23-0.23-0.46-0.46-0.69-0.69c-0.23-0.23-0.46-0.46-0.69-0.69c-0.23-0.23-0.46-0.46-0.69-0.69
		c-0.23-0.23-0.46-0.46-0.69-0.69c-0.23-0.23-0.46-0.46-0.69-0.69c-0.23-0.23-0.46-0.46-0.69-0.69c-0.23-0.23-0.46-0.46-0.69-0.69
		c-0.23-0.23-0.46-0.46-0.69-0.69c-0.23-0.23-0.46-0.46-0.69-0.69c-0.23-0.23-0.46-0.46-0.69-0.69c-0.23-0.23-0.46-0.46-0.69-0.69
		c-0.23-0.23-0.46-0.46-0.69-0.69c-0.23-0.23-0.46-0.46-0.69-0.69c-0.23-0.23-0.46-0.46-0.69-0.69c-0.23-0.23-0.46-0.46-0.69-0.69
		c-0.23-0.23-0.46-0.46-0.69-0.69c-0.23-0.23-0.46-0.46-0.69-0.69c-0.23-0.23-0.46-0.46-0.69-0.69c-0.23-0.23-0.46-0.46-0.69-0.69
		c-0.23-0.23-0.46-0.46-0.69-0.69c-0.23-0.23-0.46-0.46-0.69-0.69c-0.23-0.23-0.46-0.46-0.69-0.69c-0.23-0.23-0.46-0.46-0.69-0.69
		c-0.23-0.23-0.46-0.46-0.69-0.69c-0.23-0.23-0.46-0.46-0.69-0.69c-0.23-0.23-0.46-0.46-0.69-0.69c-0.23-0.23-0.46-0.46-0.69-0.69
		c-0.23-0.23-0.46-0.46-0.69-0.69c-0.23-0.23-0.46-0.46-0.69-0.69c-0.23-0.23-0.46-0.46-0.69-0.69c-0.23-0.23-0.46-0.46-0.69-0.69
		c-0.23-0.23-0.46-0.46-0.69-0.69c-0.23-0.23-0.46-0.46-0.69-0.69c-0.23-0.23-0.46-0.46-0.69-0.69c-0.23-0.23-0.46-0.46-0.69-0.69
		c-0.23-0.23-0.46-0.46-0.69-0.69c-0.23-0.23-0.46-0.46-0.69-0.69c-0.23-0.23-0.46-0.46-0.69-0.69c-0.23-0.23-0.46-0.46-0.69-0.69
		c-0.23-0.23-0.46-0.46-0.69-0.69c-0.23-0.23-0.46-0.46-0.69-0.69c-0.23-0.23-0.46-0.46-0.69-0.69c-0.23-0.23-0.46-0.46-0.69-0.69
		c-0.23-0.23-0.46-0.46-0.69-0.69c-0.23-0.23-0.46-0.46-0.69-0.69c-0.23-0.23-0.46-0.46-0.69-0.69c-0.23-0.23-0.46-0.46-0.69-0.69
		c-0.23-0.23-0.46-0.46-0.69-0.69c-0.23-0.23-0.46-0.46-0.69-0.69c-0.23-0.23-0.46-0.46-0.69-0.69c-0.23-0.23-0.46-0.46-0.69-0.69
		c-0.23-0.23-0.46-0.46-0.69-0.69c-0.23-0.23-0.46-0.46-0.69-0.69c-0.23-0.23-0.46-0.46-0.69-0.69c-0.23-0.23-0.46-0.46-0.69-0.69
		c-0.23-0.23-0.46-0.46-0.69-0.69c-0.23-0.23-0.46-0.46-0.69-0.69c-0.23-0.23-0.46-0.46-0.69-0.69c-0.23-0.23-0.46-0.46-0.69-0.69
		c-0.23-0.23-0.46-0.46-0.69-0.69c-0.23-0.23-0.46-0.46-0.69-0.69c-0.23-0.23-0.46-0.46-0.69-0.69c-0.23-0.23-0.46-0.46-0.69-0.69
		c-0.23-0.23-0.46-0.46-0.69-0.69c-0.23-0.23-0.46-0.46-0.69-0.69c-0.23-0.23-0.46-0.46-0.69-0.69c-0.23-0.23-0.46-0.46-0.69-0.69
		c-0.23-0.23-0.46-0.46-0.69-0.69c-0.23-0.23-0.46-0.46-0.69-0.69c-0.23-0.23-0.46-0.46-0.69-0.69c-0.23-0.23-0.46-0.46-0.69-0.69
		c-0.23-0.23-0.46-0.46-0.69-0.69c-0.23-0.23-0.46-0.46-0.69-0.69c-0.23-0.23-0.46-0.46-0.69-0.69c-0.23-0.23-0.46-0.46-0.69-0.69
		c-0.23-0.23-0.46-0.46-0.69-0.69c-0.23-0.23-0.46-0.46-0.69-0.69c-0.23-0.23-0.46-0.46-0.69-0.69c-0.23-0.23-0.46-0.46-0.69-0.69
		c-0.23-0.23-0.46-0.46-0.69-0.69c-0.23-0.23-0.46-0.46-0.69-0.69c-0.23-0.23-0.46-0.46-0.69-0.69c-0.23-0.23-0.46-0.46-0.69-0.69
		c-0.23-0.23-0.46-0.46-0.69-0.69c-0.23-0.23-0.46-0.46-0.69-0.69c-0.23-0.23-0.46-0.46-0.69-0.69c-0.23-0.23-0.46-0.46-0.69-0.69
		c-0.23-0.23-0.46-0.46-0.69-0.69c-0.23-0.23-0.46-0.46-0.69-0.69c-0.23-0.23-0.46-0.46-0.69-0.69c-0.23-0.23-0.46-0.46-0.69-0.69
		c-0.23-0.23-0.46-0.46-0.69-0.69c-0.23-0.23-0.46-0.46-0.69-0.69c-0.23-0.23-0.46-0.46-0.69-0.69c-0.23-0.23-0.46-0.46-0.69-0.69
		c-0.23-0.23-0.46-0.46-0.69-0.69c-0.23-0.23-0.46-0.46-0.69-0.69c-0.23-0.23-0.46-0.46-0.69-0.69c-0.23-0.23-0.46-0.46-0.69-0.69
		c-0.23-0.23-0.46-0.46-0.69-0.69c-0.23-0.23-0.46-0.46-0.69-0.69c-0.23-0.23-0.46-0.46-0.69-0.69c-0.23-0.23-0.46-0.46-0.69-0.69
		c-0.23-0.23-0.46-0.46-0.69-0.69c-0.23-0.23-0.46-0.46-0.69-0.69c-0.23-0.23-0.46-0.46-0.69-0.69c-0.23-0.23-0.46-0.46-0.69-0.69
		c-0.23-0.23-0.46-0.46-0.69-0.69c-0.23-0.23-0.46-0.46-0.69-0.69c-0.23-0.23-0.46-0.46-0.69-0.69c-0.23-0.23-0.46-0.46-0.69-0.69
		c-0.23-0.23-0.46-0.46-0.69-0.69c-0.23-0.23-0.46-0.46-0.69-0.69c-0.23-0.23-0.46-0.46-0.69-0.69c-0.23-0.23-0.46-0.46-0.69-0.69
		c-0.23-0.23-0.46-0.46-0.69-0.69c-0.23-0.23-0.46-0.46-0.69-0.69c-0.23-0.23-0.46-0.46-0.69-0.69c-0.23-0.23-0.46-0.46-0.69-0.69
		c-0.23-0.23-0.46-0.46-0.69-0.69c-0.23-0.23-0.46-0.46-0.69-0.69c-0.23-0.23-0.46-0.46-0.69-0.69c-0.23-0.23-0.46-0.46-0.69-0.69
		c-0.23-0.23-0.46-0.46-0.69-0.69c-0.23-0.23-0.46-0.46-0.69-0.69c-0.23-0.23-0.46-0.46-0.69-0.69c-0.23-0.23-0.46-0.46-0.69-0.69
		c-0.23-0.23-0.46-0.46-0.69-0.69c-0.23-0.23-0.46-0.46-0.69-0.69c-0.23-0.23-0.46-0.46-0.69-0.69c-0.23-0.23-0.46-0.46-0.69-0.69
		c-0.23-0.23-0.46-0.46-0.69-0.69c-0.23-0.23-0.46-0.46-0.69-0.69c-0.23-0.23-0.46-0.46-0.69-0.69c-0.23-0.23-0.46-0.46-0.69-0.69
		c-0.23-0.23-0.46-0.46-0.69-0.69c-0.23-0.23-0.46-0.46-0.69-0.69c-0.23-0.23-0.46-0.46-0.69-0.69c-0.23-0.23-0.46-0.46-0.69-0.69
		c-0.23-0.23-0.46-0.46-0.69-0.69c-0.23-0.23-0.46-0.46-0.69-0.69c-0.23-0.23-0.46-0.46-0.69-0.69c-0.23-0.23-0.46-0.46-0.69-0.69
		c-0.23-0.23-0.46-0.46-0.69-0.69c-0.23-0.23-0.46-0.46-0.69-0.69c-0.23-0.23-0.46-0.46-0.69-0.69c-0.23-0.23-0.46-0.46-0.69-0.69
		c-0.23-0.23-0.46-0.46-0.69-0.69c-0.23-0.23-0.46-0.46-0.69-0.69c-0.23-0.23-0.46-0.46-0.69-0.69c-0.23-0.23-0.46-0.46-0.69-0.69
		c-0.23-0.23-0.46-0.46-0.69-0.69c-0.23-0.23-0.46-0.46-0.69-0.69c-0.23-0.23-0.46-0.46-0.69-0.69c-0.23-0.23-0.46-0.46-0.69-0.69
		c-0.23-0.23-0.46-0.46-0.69-0.69c-0.23-0.23-0.46-0.46-0.69-0.69c-0.23-0.23-0.46-0.46-0.69-0.69c-0.23-0.23-0.46-0.46-0.69-0.69
		c-0.23-0.23-0.46-0.46-0.69-0.69c-0.23-0.23-0.46-0.46-0.69-0.69c-0.23-0.23-0.46-0.46-0.69-0.69c-0.23-0.23-0.46-0.46-0.69-0.69
		c-0.23-0.23-0.46-0.46-0.69-0.69c-0.23-0.23-0.46-0.46-0.69-0.69c-0.23-0.23-0.46-0.46-0.69-0.69c-0.23-0.23-0.46-0.46-0.69-0.69
		c-0.23-0.23-0.46-0.46-0.69-0.69c-0.23-0.23-0.46-0.46-0.69-0.69c-0.23-0.23-0.46-0.46-0.69-0.69c-0.23-0.23-0.46-0.46-0.69-0.69
		c-0.23-0.23-0.46-0.46-0.69-0.69c-0.23-0.23-0.46-0.46-0.69-0.69c-0.23-0.23-0.46-0.46-0.69-0.69c-0.23-0.23-0.46-0.46-0.69-0.69
		c-10.89-11.06-26.01-17.95-42.72-17.95c-33.07,0-59.97,26.91-59.97,59.98c0,16.71,6.88,31.83,17.94,42.71
		c0.23,0.23,0.46,0.46,0.69,0.69c0.23,0.23,0.46,0.46,0.69,0.69c0.23,0.23,0.46,0.46,0.69,0.69c0.23,0.23,0.46,0.46,0.69,0.69
		c0.23,0.23,0.46,0.46,0.69,0.69c0.23,0.23,0.46,0.46,0.69,0.69c0.23,0.23,0.46,0.46,0.69,0.69c0.23,0.23,0.46,0.46,0.69,0.69
		c0.23,0.23,0.46,0.46,0.69,0.69c0.23,0.23,0.46,0.46,0.69,0.69c0.23,0.23,0.46,0.46,0.69,0.69c0.23,0.23,0.46,0.46,0.69,0.69
		c0.23,0.23,0.46,0.46,0.69,0.69c0.23,0.23,0.46,0.46,0.69,0.69c0.23,0.23,0.46,0.46,0.69,0.69c0.23,0.23,0.46,0.46,0.69,0.69
		c0.23,0.23,0.46,0.46,0.69,0.69c0.23,0.23,0.46,0.46,0.69,0.69c0.23,0.23,0.46,0.46,0.69,0.69c0.23,0.23,0.46,0.46,0.69,0.69
		c0.23,0.23,0.46,0.46,0.69,0.69c0.23,0.23,0.46,0.46,0.69,0.69c0.23,0.23,0.46,0.46,0.69,0.69c0.23,0.23,0.46,0.46,0.69,0.69
		c0.23,0.23,0.46,0.46,0.69,0.69c0.23,0.23,0.46,0.46,0.69,0.69c0.23,0.23,0.46,0.46,0.69,0.69c0.23,0.23,0.46,0.46,0.69,0.69
		c0.23,0.23,0.46,0.46,0.69,0.69c0.23,0.23,0.46,0.46,0.69,0.69c0.23,0.23,0.46,0.46,0.69,0.69c0.23,0.23,0.46,0.46,0.69,0.69
		c0.23,0.23,0.46,0.46,0.69,0.69c0.23,0.23,0.46,0.46,0.69,0.69c0.23,0.23,0.46,0.46,0.69,0.69c0.23,0.23,0.46,0.46,0.69,0.69
		c0.23,0.23,0.46,0.46,0.69,0.69c0.23,0.23,0.46,0.46,0.69,0.69c0.23,0.23,0.46,0.46,0.69,0.69c0.23,0.23,0.46,0.46,0.69,0.69
		c0.23,0.23,0.46,0.46,0.69,0.69c0.23,0.23,0.46,0.46,0.69,0.69c0.23,0.23,0.46,0.46,0.69,0.69c0.23,0.23,0.46,0.46,0.69,0.69
		c0.07,0.07,0.12,0.14,0.19,0.21c-7.98-1.26-15.54-3.77-22.46-7.36h-12.83c-31.46,0-57.05,25.59-57.05,57.05v73.95h0.69v0.69h0.69
		v0.69h0.69v0.69h0.69v0.69h0.69v0.69h0.69v0.69h0.69v0.69h0.69v0.69h0.69v0.69h0.69v0.69h0.69v0.69h0.69v0.69h0.69v0.69h0.69v0.69
		h0.69v0.69h0.69v0.69h0.69v0.69h0.69v0.69h0.69v0.69h0.69v0.69h0.69v0.69h0.69v0.69h0.69v0.69h0.69v0.69h0.69v0.69h0.69v0.69h0.69
		v0.69h0.69v0.69h0.69v0.69h0.69v0.69h0.69v0.69h0.69v0.69h0.69v0.69h0.69v0.69h0.69v0.69h0.69v0.69h0.69V398h0.69v0.69h0.69v0.69
		h0.69v0.69h0.69v0.69h0.69v0.69h0.69v0.69h0.69v0.69h0.69v0.69h0.69v0.69h0.69v0.69h0.69v0.69h0.69v0.69h0.69v0.69h0.69v0.69h0.69
		v0.69h0.69v0.69h0.69v0.69h0.69v0.69h0.69v0.69h0.69v0.69h0.69v0.69h0.69v0.69h0.69v0.69h0.69v0.69h0.69v0.69h0.69v0.69h0.69v0.69
		h0.69v0.69h0.69v0.69h0.69v0.69h0.69v0.69H203v0.69h0.69v0.69h0.69v0.69h0.69v0.69h0.69v0.69h0.69v0.69h0.69v0.69h0.69v0.69h0.69
		v0.69h0.69v0.69h0.69v0.69h0.69v0.69h0.69v0.69h0.69v0.69h0.69v0.69h0.69v0.69h0.69v0.69h0.69v0.69h0.69v0.69h0.69v0.69h0.69v0.69
		h0.69v0.69h0.69v0.69h0.69v0.69h0.69v0.69h0.69v0.69h0.69v0.69h0.69v0.69h0.69v0.69h0.69v0.69h0.69v0.69h0.69v0.69h0.69v0.69h0.69
		v0.69h0.69v0.69h0.69v0.69h0.69v0.69h0.69v0.69h0.69v0.69h0.69v0.69h0.69v0.69h0.69v0.69h0.69v0.69h0.69v0.69h0.69v0.69h0.69v0.69
		h0.69v0.69h0.69v0.69h0.69v0.69h0.69v0.69h0.69v0.69h0.69v0.69h0.69v0.69h0.69v0.69h0.69v0.69h0.69v0.69h0.69v0.69h0.69v0.69h0.69
		v0.69h0.69v0.69h0.69v0.69h0.69V462h0.69v0.69h0.69v0.69h0.69v0.69h0.69v0.69h0.69v0.69h0.69v0.69h0.69v0.69h0.69v0.69h0.69v0.69
		h0.69v0.69h0.69v0.69h0.69v0.69h0.69v0.69h0.69v0.69h0.69v0.69h0.69v0.69h0.69v0.69h0.69v0.69h0.69v0.69h0.69v0.69h0.69v0.69h0.69
		v0.69h0.69v0.69h0.69v0.69h0.69v0.69h0.69v0.69h0.69v0.69h0.69v0.69h0.69v0.69h0.69v0.69h0.69v0.69H267v0.69h0.69v0.69h0.69v0.69
		h0.69v0.69h0.69v0.69h0.69v0.69h0.69v0.69h0.69v0.69h0.69v0.69h0.69v0.69h0.69v0.69h0.69v0.69h0.69v0.69h0.69v0.69h0.69v0.69h0.69
		v0.69h0.69v0.69h0.69v0.69h0.69v0.69h0.69v0.69h0.69v0.69h0.69v0.69h0.69v0.69h0.69v0.69h0.69v0.69h0.69v0.69h0.69v0.69h0.69v0.69
		h0.69v0.69h0.69v0.69h0.69v0.69h0.69v0.69h0.69v0.69h0.69v0.69h0.69v0.69h0.69v0.69h0.69v0.69h0.69v0.69h0.69v0.69h0.69v0.69h0.69
		v0.69h0.69v0.69h0.69v0.69h0.69v0.69h0.69v0.69h0.69v0.69h0.69v0.69h0.69v0.69h0.69v0.69h0.69v0.69h0.69v0.69h0.69v0.69h0.69v0.69
		h0.69v0.69h0.69v0.69h0.69v0.69h0.69v0.69h0.69v0.69h0.69v0.69h0.69v0.69h0.69v0.69h0.69V526h0.69v0.69h0.69v0.69h0.69v0.69h0.69
		v0.69h0.69v0.69h0.69v0.69h0.69v0.69h0.69v0.69h0.69v0.69h0.69v0.69h0.69v0.69h0.69v0.69h0.69v0.69h0.69v0.69h0.69v0.69h0.69v0.69
		h0.69v0.69h0.69v0.69h0.69v0.69h0.69v0.69h0.69v0.69h0.69v0.69h0.69v0.69h0.69v0.69h0.69v0.69h0.69v0.69h0.69v0.69h0.69v0.69h0.69
		v0.69h0.69v0.69h0.69v0.69h0.69v0.69h0.69v0.69h0.69v0.69h0.69v0.69h0.69v0.69h0.69v0.69h0.69v0.69h0.69v0.69h0.69v0.69h0.69v0.69
		h0.69v0.69h0.69v0.69h0.69v0.69h0.69v0.69h0.69v0.69h0.69v0.69h0.69v0.69h0.69v0.69h0.69v0.69h0.69v0.69h0.69v0.69h0.69v0.69h0.69
		v0.69h0.69v0.69h0.69v0.69h0.69v0.69h0.69v0.69h0.69v0.69h0.69v0.69h0.69v0.69h0.69v0.69h0.69v0.69h0.69v0.69h0.69v0.69h0.69v0.69
		h0.69v0.69h0.69v0.69h0.69v0.69h0.69v0.69h0.69v0.69h0.69v0.69h0.69v0.69h0.69v0.69h0.69v0.69h0.69v0.69h0.69v0.69h207.79v-73.95
		C569.76,489.14,563.21,474.75,552.67,464.4z"/>
	<path class="st0" d="M306.26,241.54h-12.83c-10.19,5.29-21.76,8.3-34.02,8.3c-12.26,0-23.82-3.01-34.02-8.3h-12.83
		c-31.46,0-57.05,25.59-57.05,57.05v73.95h207.79v-73.95C363.31,267.13,337.72,241.54,306.26,241.54z"/>
	<path class="st0" d="M319.39,175.71c0-33.07-26.91-59.98-59.98-59.98c-33.07,0-59.97,26.91-59.97,59.98
		c0,33.07,26.9,59.97,59.97,59.97C292.48,235.68,319.39,208.77,319.39,175.71z"/>
</g>
<g>
	<defs>
		<path id="SVGID_3_" d="M673.33,221.93c0-27.1-21.97-49.07-49.07-49.07c-27.1,0-49.07,21.97-49.07,49.07
			c0,27.1,21.97,49.07,49.07,49.07C651.36,271,673.33,249.03,673.33,221.93z"/>
	</defs>
	<use xlink:href="#SVGID_3_"  style="overflow:visible;fill:#0F9BC3;"/>
	<clipPath id="SVGID_4_">
		<use xlink:href="#SVGID_3_"  style="overflow:visible;"/>
	</clipPath>
	<path class="st2" d="M634.66,218.73h-2.8c-2.23,1.16-4.76,1.81-7.44,1.81c-2.68,0-5.21-0.66-7.43-1.81h-2.8
		c-6.87,0-12.47,5.59-12.47,12.47v16.16h45.41V231.2C647.12,224.33,641.53,218.73,634.66,218.73z"/>
	<path class="st2" d="M637.52,204.35c0-7.23-5.88-13.11-13.11-13.11c-7.23,0-13.1,5.88-13.1,13.11c0,7.23,5.88,13.11,13.1,13.11
		C631.64,217.45,637.52,211.57,637.52,204.35z"/>
	<path class="st3" d="M688.5,267.44c-0.05-0.05-0.1-0.1-0.15-0.15c-0.05-0.05-0.1-0.1-0.15-0.15c-0.05-0.05-0.1-0.1-0.15-0.15
		c-0.05-0.05-0.1-0.1-0.15-0.15c-0.05-0.05-0.1-0.1-0.15-0.15c-0.05-0.05-0.1-0.1-0.15-0.15c-0.05-0.05-0.1-0.1-0.15-0.15
		c-0.05-0.05-0.1-0.1-0.15-0.15c-0.05-0.05-0.1-0.1-0.15-0.15c-0.05-0.05-0.1-0.1-0.15-0.15c-0.05-0.05-0.1-0.1-0.15-0.15
		c-0.05-0.05-0.1-0.1-0.15-0.15c-0.05-0.05-0.1-0.1-0.15-0.15c-0.05-0.05-0.1-0.1-0.15-0.15c-0.05-0.05-0.1-0.1-0.15-0.15
		c-0.05-0.05-0.1-0.1-0.15-0.15c-0.05-0.05-0.1-0.1-0.15-0.15c-0.05-0.05-0.1-0.1-0.15-0.15c-0.05-0.05-0.1-0.1-0.15-0.15
		c-0.05-0.05-0.1-0.1-0.15-0.15c-0.05-0.05-0.1-0.1-0.15-0.15c-0.05-0.05-0.1-0.1-0.15-0.15c-0.05-0.05-0.1-0.1-0.15-0.15
		c-0.05-0.05-0.1-0.1-0.15-0.15c-0.05-0.05-0.1-0.1-0.15-0.15c-0.05-0.05-0.1-0.1-0.15-0.15c-0.05-0.05-0.1-0.1-0.15-0.15
		c-0.05-0.05-0.1-0.1-0.15-0.15c-0.05-0.05-0.1-0.1-0.15-0.15c-0.05-0.05-0.1-0.1-0.15-0.15c-0.05-0.05-0.1-0.1-0.15-0.15
		c-0.05-0.05-0.1-0.1-0.15-0.15c-0.05-0.05-0.1-0.1-0.15-0.15c-0.05-0.05-0.1-0.1-0.15-0.15c-0.05-0.05-0.1-0.1-0.15-0.15
		c-0.05-0.05-0.1-0.1-0.15-0.15c-0.05-0.05-0.1-0.1-0.15-0.15c-0.05-0.05-0.1-0.1-0.15-0.15c-0.05-0.05-0.1-0.1-0.15-0.15
		c-0.05-0.05-0.1-0.1-0.15-0.15c-0.05-0.05-0.1-0.1-0.15-0.15c-0.05-0.05-0.1-0.1-0.15-0.15c-0.05-0.05-0.1-0.1-0.15-0.15
		c-0.05-0.05-0.1-0.1-0.15-0.15c-0.05-0.05-0.1-0.1-0.15-0.15c-0.05-0.05-0.1-0.1-0.15-0.15c-0.05-0.05-0.1-0.1-0.15-0.15
		c-0.05-0.05-0.1-0.1-0.15-0.15c-0.05-0.05-0.1-0.1-0.15-0.15c-0.05-0.05-0.1-0.1-0.15-0.15c-0.05-0.05-0.1-0.1-0.15-0.15
		c-0.05-0.05-0.1-0.1-0.15-0.15c-0.05-0.05-0.1-0.1-0.15-0.15c-0.05-0.05-0.1-0.1-0.15-0.15c-0.05-0.05-0.1-0.1-0.15-0.15
		c-0.05-0.05-0.1-0.1-0.15-0.15c-0.05-0.05-0.1-0.1-0.15-0.15c-0.05-0.05-0.1-0.1-0.15-0.15c-0.05-0.05-0.1-0.1-0.15-0.15
		c-0.05-0.05-0.1-0.1-0.15-0.15c-0.05-0.05-0.1-0.1-0.15-0.15c-0.02-0.02-0.04-0.04-0.05-0.06c2.08-2.32,3.37-5.38,3.37-8.74
		c0-3.65-1.5-6.96-3.92-9.33c-0.05-0.05-0.1-0.1-0.15-0.15c-0.05-0.05-0.1-0.1-0.15-0.15c-0.05-0.05-0.1-0.1-0.15-0.15
		c-0.05-0.05-0.1-0.1-0.15-0.15c-0.05-0.05-0.1-0.1-0.15-0.15c-0.05-0.05-0.1-0.1-0.15-0.15c-0.05-0.05-0.1-0.1-0.15-0.15
		c-0.05-0.05-0.1-0.1-0.15-0.15c-0.05-0.05-0.1-0.1-0.15-0.15c-0.05-0.05-0.1-0.1-0.15-0.15c-0.05-0.05-0.1-0.1-0.15-0.15
		c-0.05-0.05-0.1-0.1-0.15-0.15c-0.05-0.05-0.1-0.1-0.15-0.15c-0.05-0.05-0.1-0.1-0.15-0.15c-0.05-0.05-0.1-0.1-0.15-0.15
		c-0.05-0.05-0.1-0.1-0.15-0.15c-0.05-0.05-0.1-0.1-0.15-0.15c-0.05-0.05-0.1-0.1-0.15-0.15c-0.05-0.05-0.1-0.1-0.15-0.15
		c-0.05-0.05-0.1-0.1-0.15-0.15c-0.05-0.05-0.1-0.1-0.15-0.15c-0.05-0.05-0.1-0.1-0.15-0.15c-0.05-0.05-0.1-0.1-0.15-0.15
		c-0.05-0.05-0.1-0.1-0.15-0.15c-0.05-0.05-0.1-0.1-0.15-0.15c-0.05-0.05-0.1-0.1-0.15-0.15c-0.05-0.05-0.1-0.1-0.15-0.15
		c-0.05-0.05-0.1-0.1-0.15-0.15c-0.05-0.05-0.1-0.1-0.15-0.15c-0.05-0.05-0.1-0.1-0.15-0.15c-0.05-0.05-0.1-0.1-0.15-0.15
		c-0.05-0.05-0.1-0.1-0.15-0.15c-0.05-0.05-0.1-0.1-0.15-0.15c-0.05-0.05-0.1-0.1-0.15-0.15c-0.05-0.05-0.1-0.1-0.15-0.15
		c-0.05-0.05-0.1-0.1-0.15-0.15c-0.05-0.05-0.1-0.1-0.15-0.15c-0.05-0.05-0.1-0.1-0.15-0.15c-0.05-0.05-0.1-0.1-0.15-0.15
		c-0.05-0.05-0.1-0.1-0.15-0.15c-0.05-0.05-0.1-0.1-0.15-0.15c-0.05-0.05-0.1-0.1-0.15-0.15c-0.05-0.05-0.1-0.1-0.15-0.15
		c-0.05-0.05-0.1-0.1-0.15-0.15c-0.05-0.05-0.1-0.1-0.15-0.15c-0.05-0.05-0.1-0.1-0.15-0.15c-0.05-0.05-0.1-0.1-0.15-0.15
		c-0.05-0.05-0.1-0.1-0.15-0.15c-0.05-0.05-0.1-0.1-0.15-0.15c-0.05-0.05-0.1-0.1-0.15-0.15c-0.05-0.05-0.1-0.1-0.15-0.15
		c-0.05-0.05-0.1-0.1-0.15-0.15c-0.05-0.05-0.1-0.1-0.15-0.15c-0.05-0.05-0.1-0.1-0.15-0.15c-0.05-0.05-0.1-0.1-0.15-0.15
		c-0.05-0.05-0.1-0.1-0.15-0.15c-0.05-0.05-0.1-0.1-0.15-0.15c-0.05-0.05-0.1-0.1-0.15-0.15c-0.05-0.05-0.1-0.1-0.15-0.15
		c-0.05-0.05-0.1-0.1-0.15-0.15c-0.05-0.05-0.1-0.1-0.15-0.15c-0.05-0.05-0.1-0.1-0.15-0.15c-0.05-0.05-0.1-0.1-0.15-0.15
		c-0.05-0.05-0.1-0.1-0.15-0.15c-0.05-0.05-0.1-0.1-0.15-0.15c-0.05-0.05-0.1-0.1-0.15-0.15c-0.05-0.05-0.1-0.1-0.15-0.15
		c-0.05-0.05-0.1-0.1-0.15-0.15c-0.05-0.05-0.1-0.1-0.15-0.15c-0.05-0.05-0.1-0.1-0.15-0.15c-0.05-0.05-0.1-0.1-0.15-0.15
		c-0.05-0.05-0.1-0.1-0.15-0.15c-0.05-0.05-0.1-0.1-0.15-0.15c-0.05-0.05-0.1-0.1-0.15-0.15c-0.05-0.05-0.1-0.1-0.15-0.15
		c-0.05-0.05-0.1-0.1-0.15-0.15c-0.05-0.05-0.1-0.1-0.15-0.15c-0.05-0.05-0.1-0.1-0.15-0.15c-0.05-0.05-0.1-0.1-0.15-0.15
		c-0.05-0.05-0.1-0.1-0.15-0.15c-0.05-0.05-0.1-0.1-0.15-0.15c-0.05-0.05-0.1-0.1-0.15-0.15c-0.05-0.05-0.1-0.1-0.15-0.15
		c-0.05-0.05-0.1-0.1-0.15-0.15c-0.05-0.05-0.1-0.1-0.15-0.15c-0.05-0.05-0.1-0.1-0.15-0.15c-0.05-0.05-0.1-0.1-0.15-0.15
		c-0.05-0.05-0.1-0.1-0.15-0.15c-0.05-0.05-0.1-0.1-0.15-0.15c-0.05-0.05-0.1-0.1-0.15-0.15c-0.05-0.05-0.1-0.1-0.15-0.15
		c-0.05-0.05-0.1-0.1-0.15-0.15c-0.05-0.05-0.1-0.1-0.15-0.15c-0.05-0.05-0.1-0.1-0.15-0.15c-0.05-0.05-0.1-0.1-0.15-0.15
		c-0.05-0.05-0.1-0.1-0.15-0.15c-0.05-0.05-0.1-0.1-0.15-0.15c-0.05-0.05-0.1-0.1-0.15-0.15c-0.05-0.05-0.1-0.1-0.15-0.15
		c-0.05-0.05-0.1-0.1-0.15-0.15c-0.05-0.05-0.1-0.1-0.15-0.15c-0.05-0.05-0.1-0.1-0.15-0.15c-0.05-0.05-0.1-0.1-0.15-0.15
		c-0.05-0.05-0.1-0.1-0.15-0.15c-0.05-0.05-0.1-0.1-0.15-0.15c-0.05-0.05-0.1-0.1-0.15-0.15c-0.05-0.05-0.1-0.1-0.15-0.15
		c-0.05-0.05-0.1-0.1-0.15-0.15c-0.05-0.05-0.1-0.1-0.15-0.15c-0.05-0.05-0.1-0.1-0.15-0.15c-0.05-0.05-0.1-0.1-0.15-0.15
		c-0.05-0.05-0.1-0.1-0.15-0.15c-0.05-0.05-0.1-0.1-0.15-0.15c-0.05-0.05-0.1-0.1-0.15-0.15c-0.05-0.05-0.1-0.1-0.15-0.15
		c-0.05-0.05-0.1-0.1-0.15-0.15c-0.05-0.05-0.1-0.1-0.15-0.15c-0.05-0.05-0.1-0.1-0.15-0.15c-0.05-0.05-0.1-0.1-0.15-0.15
		c-0.05-0.05-0.1-0.1-0.15-0.15c-0.05-0.05-0.1-0.1-0.15-0.15c-0.05-0.05-0.1-0.1-0.15-0.15c-0.05-0.05-0.1-0.1-0.15-0.15
		c-0.05-0.05-0.1-0.1-0.15-0.15c-0.05-0.05-0.1-0.1-0.15-0.15c-0.05-0.05-0.1-0.1-0.15-0.15c-0.05-0.05-0.1-0.1-0.15-0.15
		c-0.05-0.05-0.1-0.1-0.15-0.15c-0.05-0.05-0.1-0.1-0.15-0.15c-0.05-0.05-0.1-0.1-0.15-0.15c-0.05-0.05-0.1-0.1-0.15-0.15
		c-0.05-0.05-0.1-0.1-0.15-0.15c-0.05-0.05-0.1-0.1-0.15-0.15c-0.05-0.05-0.1-0.1-0.15-0.15c-0.05-0.05-0.1-0.1-0.15-0.15
		c-0.05-0.05-0.1-0.1-0.15-0.15c-0.05-0.05-0.1-0.1-0.15-0.15c-0.05-0.05-0.1-0.1-0.15-0.15c-0.05-0.05-0.1-0.1-0.15-0.15
		c-0.05-0.05-0.1-0.1-0.15-0.15c-0.05-0.05-0.1-0.1-0.15-0.15c-0.05-0.05-0.1-0.1-0.15-0.15c-0.05-0.05-0.1-0.1-0.15-0.15
		c-0.05-0.05-0.1-0.1-0.15-0.15c-0.05-0.05-0.1-0.1-0.15-0.15c-0.05-0.05-0.1-0.1-0.15-0.15c-0.05-0.05-0.1-0.1-0.15-0.15
		c-0.05-0.05-0.1-0.1-0.15-0.15c-0.05-0.05-0.1-0.1-0.15-0.15c-0.05-0.05-0.1-0.1-0.15-0.15c-0.05-0.05-0.1-0.1-0.15-0.15
		c-0.05-0.05-0.1-0.1-0.15-0.15c-0.05-0.05-0.1-0.1-0.15-0.15c-0.05-0.05-0.1-0.1-0.15-0.15c-0.05-0.05-0.1-0.1-0.15-0.15
		c-0.05-0.05-0.1-0.1-0.15-0.15c-0.05-0.05-0.1-0.1-0.15-0.15c-0.05-0.05-0.1-0.1-0.15-0.15c-0.05-0.05-0.1-0.1-0.15-0.15
		c-0.05-0.05-0.1-0.1-0.15-0.15c-0.05-0.05-0.1-0.1-0.15-0.15c-0.05-0.05-0.1-0.1-0.15-0.15c-0.05-0.05-0.1-0.1-0.15-0.15
		c-0.05-0.05-0.1-0.1-0.15-0.15c-0.05-0.05-0.1-0.1-0.15-0.15c-0.05-0.05-0.1-0.1-0.15-0.15c-0.05-0.05-0.1-0.1-0.15-0.15
		c-0.05-0.05-0.1-0.1-0.15-0.15c-0.05-0.05-0.1-0.1-0.15-0.15c-0.05-0.05-0.1-0.1-0.15-0.15c-0.05-0.05-0.1-0.1-0.15-0.15
		c-0.05-0.05-0.1-0.1-0.15-0.15c-0.05-0.05-0.1-0.1-0.15-0.15c-0.05-0.05-0.1-0.1-0.15-0.15c-0.05-0.05-0.1-0.1-0.15-0.15
		c-0.05-0.05-0.1-0.1-0.15-0.15c-0.05-0.05-0.1-0.1-0.15-0.15c-0.05-0.05-0.1-0.1-0.15-0.15c-0.05-0.05-0.1-0.1-0.15-0.15
		c-0.05-0.05-0.1-0.1-0.15-0.15c-0.05-0.05-0.1-0.1-0.15-0.15c-0.05-0.05-0.1-0.1-0.15-0.15c-0.05-0.05-0.1-0.1-0.15-0.15
		c-0.05-0.05-0.1-0.1-0.15-0.15c-0.05-0.05-0.1-0.1-0.15-0.15c-0.05-0.05-0.1-0.1-0.15-0.15c-0.05-0.05-0.1-0.1-0.15-0.15
		c-0.05-0.05-0.1-0.1-0.15-0.15c-0.05-0.05-0.1-0.1-0.15-0.15c-0.05-0.05-0.1-0.1-0.15-0.15c-0.05-0.05-0.1-0.1-0.15-0.15
		c-0.05-0.05-0.1-0.1-0.15-0.15c-0.05-0.05-0.1-0.1-0.15-0.15c-0.05-0.05-0.1-0.1-0.15-0.15c-0.05-0.05-0.1-0.1-0.15-0.15
		c-0.05-0.05-0.1-0.1-0.15-0.15c-0.05-0.05-0.1-0.1-0.15-0.15c-0.05-0.05-0.1-0.1-0.15-0.15c-0.05-0.05-0.1-0.1-0.15-0.15
		c-0.05-0.05-0.1-0.1-0.15-0.15c-0.05-0.05-0.1-0.1-0.15-0.15c-0.05-0.05-0.1-0.1-0.15-0.15c-0.05-0.05-0.1-0.1-0.15-0.15
		c-0.05-0.05-0.1-0.1-0.15-0.15c-0.05-0.05-0.1-0.1-0.15-0.15c-0.05-0.05-0.1-0.1-0.15-0.15c-0.05-0.05-0.1-0.1-0.15-0.15
		c-0.05-0.05-0.1-0.1-0.15-0.15c-0.05-0.05-0.1-0.1-0.15-0.15c-0.05-0.05-0.1-0.1-0.15-0.15c-0.05-0.05-0.1-0.1-0.15-0.15
		c-0.05-0.05-0.1-0.1-0.15-0.15c-0.05-0.05-0.1-0.1-0.15-0.15c-0.05-0.05-0.1-0.1-0.15-0.15c-0.05-0.05-0.1-0.1-0.15-0.15
		c-0.05-0.05-0.1-0.1-0.15-0.15c-0.05-0.05-0.1-0.1-0.15-0.15c-0.05-0.05-0.1-0.1-0.15-0.15c-0.05-0.05-0.1-0.1-0.15-0.15
		c-0.05-0.05-0.1-0.1-0.15-0.15c-0.05-0.05-0.1-0.1-0.15-0.15c-0.05-0.05-0.1-0.1-0.15-0.15c-0.05-0.05-0.1-0.1-0.15-0.15
		c-0.05-0.05-0.1-0.1-0.15-0.15c-0.05-0.05-0.1-0.1-0.15-0.15c-0.05-0.05-0.1-0.1-0.15-0.15c-0.05-0.05-0.1-0.1-0.15-0.15
		c-0.05-0.05-0.1-0.1-0.15-0.15c-0.05-0.05-0.1-0.1-0.15-0.15c-0.05-0.05-0.1-0.1-0.15-0.15c-0.05-0.05-0.1-0.1-0.15-0.15
		c-0.05-0.05-0.1-0.1-0.15-0.15c-0.05-0.05-0.1-0.1-0.15-0.15c-0.05-0.05-0.1-0.1-0.15-0.15c-0.05-0.05-0.1-0.1-0.15-0.15
		c-0.05-0.05-0.1-0.1-0.15-0.15c-0.05-0.05-0.1-0.1-0.15-0.15c-0.05-0.05-0.1-0.1-0.15-0.15c-0.05-0.05-0.1-0.1-0.15-0.15
		c-0.05-0.05-0.1-0.1-0.15-0.15c-0.05-0.05-0.1-0.1-0.15-0.15c-0.05-0.05-0.1-0.1-0.15-0.15c-0.05-0.05-0.1-0.1-0.15-0.15
		c-0.05-0.05-0.1-0.1-0.15-0.15c-0.05-0.05-0.1-0.1-0.15-0.15c-0.05-0.05-0.1-0.1-0.15-0.15c-0.05-0.05-0.1-0.1-0.15-0.15
		c-0.05-0.05-0.1-0.1-0.15-0.15c-0.05-0.05-0.1-0.1-0.15-0.15c-0.05-0.05-0.1-0.1-0.15-0.15c-0.05-0.05-0.1-0.1-0.15-0.15
		c-0.05-0.05-0.1-0.1-0.15-0.15c-0.05-0.05-0.1-0.1-0.15-0.15c-0.05-0.05-0.1-0.1-0.15-0.15c-0.05-0.05-0.1-0.1-0.15-0.15
		c-0.05-0.05-0.1-0.1-0.15-0.15c-0.05-0.05-0.1-0.1-0.15-0.15c-0.05-0.05-0.1-0.1-0.15-0.15c-0.05-0.05-0.1-0.1-0.15-0.15
		c-0.05-0.05-0.1-0.1-0.15-0.15c-0.05-0.05-0.1-0.1-0.15-0.15c-0.05-0.05-0.1-0.1-0.15-0.15c-0.05-0.05-0.1-0.1-0.15-0.15
		c-0.05-0.05-0.1-0.1-0.15-0.15c-0.05-0.05-0.1-0.1-0.15-0.15c-0.05-0.05-0.1-0.1-0.15-0.15c-0.05-0.05-0.1-0.1-0.15-0.15
		c-0.05-0.05-0.1-0.1-0.15-0.15c-0.05-0.05-0.1-0.1-0.15-0.15c-0.05-0.05-0.1-0.1-0.15-0.15c-0.05-0.05-0.1-0.1-0.15-0.15
		c-0.05-0.05-0.1-0.1-0.15-0.15c-0.05-0.05-0.1-0.1-0.15-0.15c-0.05-0.05-0.1-0.1-0.15-0.15c-0.05-0.05-0.1-0.1-0.15-0.15
		c-0.05-0.05-0.1-0.1-0.15-0.15c-0.05-0.05-0.1-0.1-0.15-0.15c-0.05-0.05-0.1-0.1-0.15-0.15c-0.05-0.05-0.1-0.1-0.15-0.15
		c-0.05-0.05-0.1-0.1-0.15-0.15c-0.05-0.05-0.1-0.1-0.15-0.15c-0.05-0.05-0.1-0.1-0.15-0.15c-0.05-0.05-0.1-0.1-0.15-0.15
		c-0.05-0.05-0.1-0.1-0.15-0.15c-0.05-0.05-0.1-0.1-0.15-0.15c-0.05-0.05-0.1-0.1-0.15-0.15c-0.05-0.05-0.1-0.1-0.15-0.15
		c-0.05-0.05-0.1-0.1-0.15-0.15c-0.05-0.05-0.1-0.1-0.15-0.15c-0.05-0.05-0.1-0.1-0.15-0.15c-0.05-0.05-0.1-0.1-0.15-0.15
		c-0.05-0.05-0.1-0.1-0.15-0.15c-0.05-0.05-0.1-0.1-0.15-0.15c-0.05-0.05-0.1-0.1-0.15-0.15c-0.05-0.05-0.1-0.1-0.15-0.15
		c-0.05-0.05-0.1-0.1-0.15-0.15c-0.05-0.05-0.1-0.1-0.15-0.15c-0.05-0.05-0.1-0.1-0.15-0.15c-0.05-0.05-0.1-0.1-0.15-0.15
		c-2.38-2.42-5.68-3.92-9.34-3.92c-7.23,0-13.1,5.88-13.1,13.11c0,3.65,1.5,6.96,3.92,9.33c0.05,0.05,0.1,0.1,0.15,0.15
		c0.05,0.05,0.1,0.1,0.15,0.15c0.05,0.05,0.1,0.1,0.15,0.15c0.05,0.05,0.1,0.1,0.15,0.15c0.05,0.05,0.1,0.1,0.15,0.15
		c0.05,0.05,0.1,0.1,0.15,0.15c0.05,0.05,0.1,0.1,0.15,0.15c0.05,0.05,0.1,0.1,0.15,0.15c0.05,0.05,0.1,0.1,0.15,0.15
		c0.05,0.05,0.1,0.1,0.15,0.15c0.05,0.05,0.1,0.1,0.15,0.15c0.05,0.05,0.1,0.1,0.15,0.15c0.05,0.05,0.1,0.1,0.15,0.15
		c0.05,0.05,0.1,0.1,0.15,0.15c0.05,0.05,0.1,0.1,0.15,0.15c0.05,0.05,0.1,0.1,0.15,0.15c0.05,0.05,0.1,0.1,0.15,0.15
		c0.05,0.05,0.1,0.1,0.15,0.15c0.05,0.05,0.1,0.1,0.15,0.15c0.05,0.05,0.1,0.1,0.15,0.15c0.05,0.05,0.1,0.1,0.15,0.15
		c0.05,0.05,0.1,0.1,0.15,0.15c0.05,0.05,0.1,0.1,0.15,0.15c0.05,0.05,0.1,0.1,0.15,0.15c0.05,0.05,0.1,0.1,0.15,0.15
		c0.05,0.05,0.1,0.1,0.15,0.15c0.05,0.05,0.1,0.1,0.15,0.15c0.05,0.05,0.1,0.1,0.15,0.15c0.05,0.05,0.1,0.1,0.15,0.15
		c0.05,0.05,0.1,0.1,0.15,0.15c0.05,0.05,0.1,0.1,0.15,0.15c0.05,0.05,0.1,0.1,0.15,0.15c0.05,0.05,0.1,0.1,0.15,0.15
		c0.05,0.05,0.1,0.1,0.15,0.15c0.05,0.05,0.1,0.1,0.15,0.15c0.05,0.05,0.1,0.1,0.15,0.15c0.05,0.05,0.1,0.1,0.15,0.15
		c0.05,0.05,0.1,0.1,0.15,0.15c0.05,0.05,0.1,0.1,0.15,0.15c0.05,0.05,0.1,0.1,0.15,0.15c0.05,0.05,0.1,0.1,0.15,0.15
		c0.05,0.05,0.1,0.1,0.15,0.15c0.05,0.05,0.1,0.1,0.15,0.15c0.05,0.05,0.1,0.1,0.15,0.15c0.01,0.01,0.03,0.03,0.04,0.04
		c-1.74-0.28-3.4-0.82-4.91-1.61h-2.8c-6.87,0-12.47,5.59-12.47,12.47v16.16h0.15v0.15h0.15v0.15h0.15v0.15h0.15v0.15h0.15v0.15
		h0.15v0.15h0.15v0.15h0.15v0.15h0.15v0.15h0.15v0.15h0.15v0.15h0.15v0.15h0.15v0.15h0.15v0.15h0.15v0.15h0.15v0.15h0.15v0.15h0.15
		v0.15h0.15v0.15h0.15v0.15h0.15v0.15h0.15v0.15h0.15v0.15h0.15v0.15h0.15v0.15h0.15v0.15h0.15v0.15h0.15v0.15h0.15v0.15h0.15v0.15
		h0.15v0.15h0.15v0.15h0.15v0.15h0.15v0.15h0.15v0.15h0.15v0.15h0.15v0.15h0.15v0.15h0.15v0.15h0.15v0.15h0.15v0.15h0.15v0.15h0.15
		v0.15h0.15v0.15h0.15v0.15h0.15v0.15h0.15v0.15h0.15v0.15h0.15v0.15h0.15v0.15h0.15v0.15h0.15v0.15h0.15v0.15h0.15v0.15h0.15v0.15
		h0.15v0.15h0.15v0.15h0.15v0.15h0.15v0.15h0.15v0.15h0.15v0.15h0.15v0.15h0.15v0.15h0.15v0.15h0.15v0.15h0.15v0.15h0.15v0.15h0.15
		v0.15h0.15v0.15h0.15v0.15h0.15v0.15h0.15v0.15h0.15v0.15h0.15v0.15h0.15v0.15h0.15v0.15h0.15v0.15h0.15v0.15h0.15v0.15h0.15v0.15
		h0.15v0.15h0.15v0.15h0.15v0.15h0.15v0.15h0.15v0.15h0.15v0.15h0.15v0.15h0.15v0.15h0.15v0.15h0.15v0.15h0.15v0.15h0.15v0.15h0.15
		v0.15h0.15v0.15H616v0.15h0.15v0.15h0.15v0.15h0.15v0.15h0.15v0.15h0.15v0.15h0.15v0.15h0.15v0.15h0.15v0.15h0.15V263h0.15v0.15
		h0.15v0.15h0.15v0.15h0.15v0.15h0.15v0.15h0.15v0.15h0.15v0.15h0.15v0.15h0.15v0.15h0.15v0.15h0.15v0.15h0.15v0.15h0.15v0.15h0.15
		v0.15h0.15v0.15h0.15v0.15h0.15v0.15h0.15v0.15h0.15v0.15h0.15v0.15h0.15v0.15h0.15v0.15h0.15v0.15h0.15v0.15h0.15v0.15h0.15v0.15
		h0.15v0.15h0.15v0.15h0.15v0.15h0.15v0.15h0.15v0.15h0.15v0.15h0.15v0.15h0.15v0.15h0.15v0.15h0.15v0.15h0.15v0.15h0.15v0.15h0.15
		v0.15h0.15v0.15h0.15v0.15h0.15v0.15h0.15v0.15h0.15v0.15h0.15v0.15h0.15v0.15h0.15v0.15h0.15v0.15h0.15v0.15h0.15v0.15h0.15v0.15
		h0.15v0.15h0.15v0.15h0.15v0.15h0.15v0.15h0.15v0.15h0.15v0.15h0.15v0.15h0.15v0.15h0.15v0.15h0.15v0.15h0.15v0.15h0.15v0.15h0.15
		v0.15h0.15v0.15h0.15v0.15h0.15v0.15h0.15v0.15h0.15v0.15h0.15v0.15h0.15v0.15h0.15v0.15h0.15v0.15h0.15v0.15h0.15v0.15h0.15v0.15
		h0.15v0.15h0.15v0.15h0.15v0.15h0.15v0.15h0.15v0.15h0.15v0.15h0.15v0.15h0.15v0.15h0.15v0.15h0.15v0.15h0.15v0.15h0.15v0.15h0.15
		v0.15h0.15v0.15h0.15v0.15h0.15v0.15h0.15v0.15h0.15v0.15h0.15v0.15h0.15v0.15h0.15v0.15h0.15v0.15h0.15v0.15h0.15v0.15h0.15v0.15
		h0.15v0.15h0.15v0.15h0.15v0.15h0.15v0.15h0.15v0.15h0.15v0.15h0.15v0.15h0.15v0.15h0.15v0.15h0.15v0.15h0.15v0.15h0.15V280h0.15
		v0.15h0.15v0.15h0.15v0.15h0.15v0.15h0.15v0.15h0.15v0.15h0.15v0.15h0.15v0.15h0.15v0.15h0.15v0.15H636v0.15h0.15v0.15h0.15v0.15
		h0.15v0.15h0.15v0.15h0.15v0.15h0.15v0.15h0.15v0.15h0.15v0.15h0.15V283h0.15v0.15h0.15v0.15h0.15v0.15h0.15v0.15h0.15v0.15h0.15
		v0.15h0.15v0.15h0.15v0.15h0.15v0.15h0.15v0.15h0.15v0.15h0.15v0.15h0.15v0.15h0.15v0.15h0.15v0.15h0.15v0.15h0.15v0.15h0.15v0.15
		h0.15v0.15h0.15v0.15h0.15v0.15h0.15v0.15h0.15v0.15h0.15v0.15h0.15v0.15h0.15v0.15h0.15v0.15h0.15v0.15h0.15v0.15h0.15v0.15h0.15
		v0.15h0.15v0.15h0.15v0.15h0.15v0.15h0.15v0.15h0.15v0.15h0.15v0.15h0.15v0.15h0.15v0.15h0.15v0.15h0.15v0.15h0.15v0.15h0.15v0.15
		h0.15v0.15h0.15v0.15h0.15v0.15h0.15v0.15h0.15v0.15h0.15v0.15h0.15v0.15h0.15v0.15h0.15v0.15h0.15v0.15h0.15v0.15h0.15v0.15h0.15
		v0.15h0.15v0.15h0.15v0.15h0.15v0.15h0.15v0.15h0.15v0.15h0.15v0.15h0.15v0.15h45.41v-16.16
		C692.24,272.84,690.81,269.7,688.5,267.44z"/>
	<path class="st2" d="M634.66,218.73h-2.8c-2.23,1.16-4.76,1.81-7.44,1.81c-2.68,0-5.21-0.66-7.43-1.81h-2.8
		c-6.87,0-12.47,5.59-12.47,12.47v16.16h45.41V231.2C647.12,224.33,641.53,218.73,634.66,218.73z"/>
	<path class="st2" d="M637.52,204.35c0-7.23-5.88-13.11-13.11-13.11c-7.23,0-13.1,5.88-13.1,13.11c0,7.23,5.88,13.11,13.1,13.11
		C631.64,217.45,637.52,211.57,637.52,204.35z"/>
</g>
</svg>
